<svg xmlns="http://www.w3.org/2000/svg" xmlns:xlink="http://www.w3.org/1999/xlink" width="500" zoomAndPan="magnify" viewBox="0 0 375 374.999991" height="500" preserveAspectRatio="xMidYMid meet" version="1.0"><defs><clipPath id="32b45593e4"><path d="M 37.5 1 L 348.75 1 L 348.75 375 L 37.5 375 Z M 37.5 1 " clip-rule="nonzero"/></clipPath></defs><g clip-path="url(#32b45593e4)"><path fill="#c78767" d="M 348.324219 290.542969 C 348.765625 293.507812 346.46875 296.722656 344.34375 298.835938 C 342.226562 300.949219 339.503906 302.328125 336.820312 303.65625 C 320.390625 311.800781 304.445312 319.753906 287.15625 325.851562 C 251.558594 338.398438 203.195312 356.996094 171.683594 370.945312 C 167.835938 372.648438 163.871094 374.417969 159.667969 374.519531 C 154.613281 374.648438 149.566406 372.164062 146.574219 368.082031 C 144.941406 365.863281 143.929688 363.257812 142.929688 360.691406 C 137.660156 347.136719 133.3125 336.863281 128.378906 323.1875 C 123.160156 308.734375 112.910156 283.941406 109.425781 272.542969 C 107.503906 266.238281 105.578125 259.9375 103.335938 253.742188 C 98.117188 239.332031 66.894531 143.234375 51.917969 111.785156 C 47.5625 102.652344 37.507812 78.96875 37.574219 73.761719 C 38.320312 68.535156 40.40625 66 43.480469 64.902344 C 62.421875 58.164062 81.214844 51.570312 99.972656 45.070312 C 106.042969 40.96875 111.363281 38.683594 118.535156 38.652344 C 154.539062 26.257812 190.507812 14.113281 227.140625 1.835938 C 231.667969 0.320312 236.601562 2.5625 238.429688 6.980469 C 276.519531 98.851562 315.476562 191.507812 348.0625 285.460938 C 348.660156 287.15625 348.71875 288.917969 348.324219 290.542969 Z M 348.324219 290.542969 " fill-opacity="1" fill-rule="nonzero"/></g><path fill="#ece6e3" d="M 328.472656 280.699219 C 276.769531 307.710938 222.632812 330.023438 166.929688 347.28125 C 129.667969 262.101562 97.828125 174.679688 66.007812 87.320312 C 64.121094 82.148438 61.484375 77.671875 60.804688 72.199219 C 107.445312 53.796875 157.855469 36.078125 205.960938 21.929688 C 210.867188 20.488281 220.492188 16.847656 225.441406 15.546875 C 232.152344 22.265625 234.84375 31.757812 239.234375 41.226562 C 261.117188 88.394531 279.730469 137.003906 298.324219 185.558594 C 310.75 218.003906 320.449219 246.890625 328.472656 280.699219 Z M 328.472656 280.699219 " fill-opacity="1" fill-rule="nonzero"/><path fill="#ac6e52" d="M 306.90625 261.265625 C 306.824219 261.085938 306.824219 260.886719 306.835938 260.691406 C 306.875 260.257812 307.023438 259.824219 307.253906 259.460938 C 307.425781 259.199219 307.648438 258.960938 307.941406 258.855469 C 308.777344 258.550781 309.902344 259.578125 310.066406 260.332031 C 310.191406 260.914062 309.9375 261.574219 309.425781 261.863281 C 309.125 262.035156 308.769531 262.074219 308.425781 262.050781 C 308.03125 262.027344 307.628906 261.921875 307.292969 261.699219 C 307.136719 261.59375 306.988281 261.445312 306.90625 261.265625 Z M 213.714844 206.351562 C 208.394531 208.089844 203.039062 209.734375 197.792969 211.664062 C 187.667969 215.414062 177.992188 220.25 168.328125 225.078125 C 161.960938 228.265625 155.589844 231.449219 149.222656 234.628906 L 147.984375 236.980469 C 158.644531 231.890625 169.296875 226.800781 179.960938 221.710938 C 188.152344 217.800781 196.382812 213.867188 205.023438 211.0625 C 210.464844 209.292969 216.050781 207.980469 221.574219 206.480469 C 238.019531 202 254.011719 195.835938 269.210938 188.113281 C 273.511719 185.925781 276.515625 184.277344 279.453125 180.441406 C 264.410156 187.34375 249.105469 193.671875 233.578125 199.410156 C 227 201.851562 220.378906 204.179688 213.714844 206.351562 Z M 217.121094 238.414062 C 199.9375 247.019531 182.300781 254.730469 164.3125 261.492188 C 193.648438 252.460938 219.34375 242.636719 246.332031 228.003906 C 235.945312 228.726562 226.433594 233.75 217.121094 238.414062 Z M 273.847656 266.828125 C 272.222656 267.757812 271.171875 269.4375 270.417969 271.148438 C 269.75 272.679688 269.257812 274.320312 268.25 275.65625 C 267.25 277 265.550781 278 263.933594 277.582031 C 262.277344 277.15625 261.324219 275.484375 260.28125 274.132812 C 257.507812 270.535156 252.601562 268.453125 248.242188 269.722656 C 242.8125 271.296875 240.144531 278.058594 237.855469 283.230469 C 239.933594 280.296875 242.089844 277.296875 245.078125 275.3125 C 248.078125 273.320312 252.132812 272.527344 255.269531 274.289062 C 257.917969 275.78125 259.371094 278.714844 261.503906 280.886719 C 262.21875 281.617188 263.0625 282.296875 264.066406 282.507812 C 266.273438 282.976562 268.308594 281.089844 269.324219 279.074219 C 270.335938 277.058594 270.816406 274.746094 272.222656 272.984375 C 272.699219 272.394531 273.289062 271.871094 274.019531 271.664062 C 276.285156 271.007812 278.128906 273.515625 279.042969 275.683594 C 279.960938 277.855469 281.332031 280.507812 283.6875 280.402344 C 284.546875 277.097656 285.566406 273.84375 286.738281 270.640625 C 287.007812 269.917969 287.296875 269.15625 287.886719 268.648438 C 288.773438 267.878906 290.0625 267.886719 291.234375 267.835938 C 296.207031 267.609375 301.066406 265.527344 304.691406 262.109375 C 302.566406 263.820312 299.203125 264.191406 296.558594 263.566406 C 294.984375 263.191406 293.492188 262.355469 291.882812 262.355469 C 288.148438 262.363281 286.050781 266.46875 284.039062 269.617188 C 283.703125 270.140625 283.308594 270.683594 282.710938 270.863281 C 280.953125 271.402344 280.230469 268.707031 279.007812 267.335938 C 277.761719 265.945312 275.472656 265.902344 273.847656 266.828125 Z M 145.253906 198.039062 C 142.648438 199.425781 140.039062 200.808594 137.429688 202.195312 C 147.589844 197.636719 157.59375 193.589844 167.753906 189.03125 C 174.644531 185.941406 181.53125 182.851562 188.414062 179.753906 C 191.433594 178.394531 194.460938 177.042969 197.480469 175.6875 C 214.527344 168.027344 231.621094 160.355469 247.734375 150.886719 C 253.800781 147.316406 257.859375 143.316406 263.613281 139.265625 C 242.886719 149.980469 221.492188 159.320312 200.503906 169.519531 C 181.867188 178.582031 163.566406 188.3125 145.253906 198.039062 Z M 305.585938 261.238281 C 305.300781 261.542969 304.996094 261.832031 304.691406 262.125 C 305.019531 261.855469 305.324219 261.566406 305.585938 261.238281 Z M 135.699219 163.910156 C 135.609375 163.976562 135.511719 164.035156 135.421875 164.101562 C 135.332031 164.445312 136.070312 164.074219 136.207031 164.230469 C 136.175781 164.109375 136.085938 163.992188 135.972656 163.894531 C 136.292969 163.839844 136.621094 163.683594 136.90625 163.527344 C 142.609375 160.3125 148.4375 157.320312 154.375 154.558594 C 184.753906 140.429688 217.875 132.390625 247.105469 116.015625 C 248.816406 115.0625 249.65625 113.375 251.347656 112.390625 C 212.65625 129.390625 170.132812 139.09375 135.863281 163.804688 C 135.4375 163.5 134.828125 163.378906 135.132812 163.683594 C 135.289062 163.835938 135.480469 163.902344 135.699219 163.910156 Z M 171.953125 82.296875 C 196.226562 79.558594 217.519531 72.460938 238.90625 60.640625 C 216.585938 67.855469 194.273438 75.082031 171.953125 82.296875 Z M 179.40625 355.429688 C 176.007812 356.550781 168.957031 360.25 165.390625 360.59375 C 155.304688 361.558594 151.242188 350.675781 146.597656 341.660156 C 142.15625 333.039062 139.402344 323.679688 135.839844 314.660156 C 108.242188 244.75 82.632812 166.082031 53.460938 92.761719 C 50.695312 85.796875 46.410156 79.664062 42.234375 73.4375 C 83.238281 166.132812 104.15625 255.914062 148.796875 355.242188 C 156.519531 372.425781 179.878906 359.519531 190.984375 354.519531 C 205.992188 347.765625 227.804688 341.578125 242.925781 335.070312 C 279.460938 319.324219 314.164062 308.992188 344.113281 292.917969 C 339.707031 290.878906 204.105469 347.28125 179.40625 355.429688 Z M 241.136719 88.195312 C 240.84375 88.261719 240.605469 88.34375 240.40625 88.425781 C 240.539062 88.378906 240.667969 88.34375 240.800781 88.296875 C 240.910156 88.269531 241.023438 88.230469 241.136719 88.195312 Z M 226.152344 96.402344 C 230.175781 94.964844 234.253906 93.5 237.8125 91.128906 C 239.472656 90.023438 239.070312 89.015625 240.40625 88.425781 C 219.082031 95.292969 197.621094 102.320312 178.199219 113.480469 C 194.386719 107.6875 209.972656 102.203125 226.152344 96.402344 Z M 226.152344 96.402344 " fill-opacity="1" fill-rule="nonzero"/><path fill="#1f4a7a" d="M 118.535156 38.652344 C 112.347656 40.78125 106.160156 42.914062 99.972656 45.0625 C 100.347656 44.144531 100.785156 43.25 101.292969 42.40625 C 101.628906 41.847656 102 41.289062 102.144531 40.644531 C 102.277344 40.027344 102.195312 39.382812 102.105469 38.757812 C 101.910156 37.378906 101.597656 34.175781 101.597656 31.699219 C 102.917969 31.519531 106.601562 35.035156 108.167969 35.316406 C 109.777344 35.609375 111.433594 35.609375 113.011719 36.003906 C 114.824219 36.460938 116.457031 37.421875 118.074219 38.371094 C 118.222656 38.464844 118.378906 38.5625 118.535156 38.652344 Z M 118.535156 38.652344 " fill-opacity="1" fill-rule="nonzero"/><path fill="#337096" d="M 180.046875 12.867188 C 179.378906 11.308594 178.707031 9.742188 178.027344 8.179688 C 171.214844 9.0625 164.609375 10.808594 158.085938 12.890625 C 156.214844 10.359375 153.277344 8.539062 150.167969 7.867188 C 145.554688 6.875 140.691406 8.070312 136.464844 10.1875 C 133.140625 11.859375 130.039062 14.179688 128.078125 17.347656 C 126.910156 19.242188 126.191406 21.464844 126.125 23.675781 C 125.484375 23.867188 124.84375 24.0625 124.203125 24.25 C 116.5625 26.519531 109.226562 29.4375 101.589844 31.699219 C 102.851562 34.363281 104.109375 37.027344 105.371094 39.699219 C 109.40625 39.980469 112.910156 42.847656 114.9375 46.347656 C 116.972656 49.839844 117.769531 53.90625 118.371094 57.910156 C 142.640625 49.691406 168.902344 39.90625 193.164062 31.691406 C 194.636719 15.847656 182.472656 13.25 180.046875 12.867188 Z M 138.0625 19.898438 C 137.703125 20.019531 137.351562 20.136719 136.996094 20.257812 C 136.75 18.839844 137.472656 17.375 138.554688 16.433594 C 139.640625 15.488281 141.042969 14.996094 142.453125 14.675781 C 144.808594 14.136719 147.695312 14.285156 149.328125 15.867188 C 145.570312 17.203125 141.828125 18.578125 138.0625 19.898438 Z M 138.0625 19.898438 " fill-opacity="1" fill-rule="nonzero"/><path fill="#1f4a7a" d="M 175.875 14.480469 C 155.445312 21.429688 134.953125 28.175781 114.390625 34.707031 C 134.929688 26.167969 154.34375 20.0625 175.875 14.480469 Z M 154.328125 94.703125 C 149.394531 96.671875 144.824219 98.5 140.359375 100.292969 C 138.023438 95.179688 135.714844 90.050781 133.453125 84.867188 C 129.503906 86.222656 125.269531 87.949219 121.316406 89.304688 C 124.0625 94.03125 126.707031 99.292969 129.183594 104.761719 C 124.65625 106.578125 120.027344 108.417969 115.03125 110.417969 C 117.195312 114.359375 117.367188 118.949219 119.527344 122.882812 C 124.484375 120.964844 129.398438 118.929688 134.265625 116.785156 C 136.382812 122.167969 138.308594 127.519531 139.949219 132.527344 C 145.160156 129.152344 148.253906 128.609375 152.53125 127.242188 C 150.242188 121.972656 147.886719 116.761719 145.523438 111.578125 C 150.144531 109.335938 154.722656 107 159.242188 104.5625 C 158.25 101.226562 156.171875 97.65625 154.328125 94.703125 Z M 172.460938 92.964844 C 177.96875 102.597656 176.507812 115.285156 170.3125 124.488281 C 164.125 133.699219 153.84375 139.617188 143.070312 142.226562 C 134.164062 144.386719 124.382812 144.378906 116.234375 140.167969 C 107.027344 135.414062 100.988281 125.757812 98.863281 115.605469 C 97.65625 109.824219 97.582031 103.71875 99.152344 97.992188 C 103.492188 82.195312 121.160156 70.425781 137.242188 71.566406 C 147.058594 72.261719 156.304688 76.902344 163.855469 83.222656 C 167.203125 86.007812 170.296875 89.179688 172.460938 92.964844 Z M 172.75 104.105469 C 171.96875 100.113281 169.671875 96.597656 167.195312 93.367188 C 161.0625 85.328125 153.171875 78.089844 143.421875 75.453125 C 133 72.640625 121.175781 75.777344 113.511719 83.378906 C 111.074219 85.804688 109.054688 88.613281 107.046875 91.402344 C 105.675781 93.3125 104.296875 95.230469 103.214844 97.320312 C 97.722656 107.875 101.382812 123.054688 110.523438 130.726562 C 111.597656 131.628906 112.878906 132.242188 114.152344 132.816406 C 123.390625 136.972656 133.691406 139.535156 143.675781 137.839844 C 155.148438 135.890625 165.472656 128.078125 170.46875 117.554688 C 172.460938 113.382812 173.636719 108.652344 172.75 104.105469 Z M 172.75 104.105469 " fill-opacity="1" fill-rule="nonzero"/></svg>