<svg xmlns="http://www.w3.org/2000/svg" xmlns:xlink="http://www.w3.org/1999/xlink" width="500" zoomAndPan="magnify" viewBox="0 0 375 374.999991" height="500" preserveAspectRatio="xMidYMid meet" version="1.0"><defs><filter x="0%" y="0%" width="100%" height="100%" id="0ad569164b"><feColorMatrix values="0 0 0 0 1 0 0 0 0 1 0 0 0 0 1 0 0 0 1 0" color-interpolation-filters="sRGB"/></filter><mask id="b90e28efa6"><g filter="url(#0ad569164b)"><rect x="-37.5" width="450" fill="#000000" y="-37.499999" height="449.999989" fill-opacity="0.7"/></g></mask><clipPath id="ed708b7df8"><path d="M 125 7 L 346 7 L 346 228 L 125 228 Z M 125 7 " clip-rule="nonzero"/></clipPath><clipPath id="8452b86443"><path d="M 322.085938 -11.707031 L 385.929688 312.058594 L 65.105469 375.320312 L 1.261719 51.554688 Z M 322.085938 -11.707031 " clip-rule="nonzero"/></clipPath><clipPath id="a4e7feaeb0"><path d="M 322.085938 -11.707031 L 385.929688 312.058594 L 65.105469 375.320312 L 1.261719 51.554688 Z M 322.085938 -11.707031 " clip-rule="nonzero"/></clipPath><clipPath id="974866bc15"><path d="M 131 206 L 186 206 L 186 250 L 131 250 Z M 131 206 " clip-rule="nonzero"/></clipPath><clipPath id="eaa8f8ec8d"><path d="M 322.085938 -11.707031 L 385.929688 312.058594 L 65.105469 375.320312 L 1.261719 51.554688 Z M 322.085938 -11.707031 " clip-rule="nonzero"/></clipPath><clipPath id="13d203c7c3"><path d="M 322.085938 -11.707031 L 385.929688 312.058594 L 65.105469 375.320312 L 1.261719 51.554688 Z M 322.085938 -11.707031 " clip-rule="nonzero"/></clipPath><clipPath id="d10cc3cbb7"><path d="M 61 247 L 157 247 L 157 371 L 61 371 Z M 61 247 " clip-rule="nonzero"/></clipPath><clipPath id="babb048f37"><path d="M 322.085938 -11.707031 L 385.929688 312.058594 L 65.105469 375.320312 L 1.261719 51.554688 Z M 322.085938 -11.707031 " clip-rule="nonzero"/></clipPath><clipPath id="af8251045e"><path d="M 322.085938 -11.707031 L 385.929688 312.058594 L 65.105469 375.320312 L 1.261719 51.554688 Z M 322.085938 -11.707031 " clip-rule="nonzero"/></clipPath><clipPath id="cb5b5fc24f"><path d="M 158 41 L 263 41 L 263 159 L 158 159 Z M 158 41 " clip-rule="nonzero"/></clipPath><clipPath id="a77330b73d"><path d="M 322.085938 -11.707031 L 385.929688 312.058594 L 65.105469 375.320312 L 1.261719 51.554688 Z M 322.085938 -11.707031 " clip-rule="nonzero"/></clipPath><clipPath id="9944600d14"><path d="M 322.085938 -11.707031 L 385.929688 312.058594 L 65.105469 375.320312 L 1.261719 51.554688 Z M 322.085938 -11.707031 " clip-rule="nonzero"/></clipPath><clipPath id="05ea75fc9c"><rect x="0" width="362" y="0" height="375"/></clipPath></defs><g mask="url(#b90e28efa6)"><g transform="matrix(1, 0, 0, 1, 13, 0)"><g clip-path="url(#05ea75fc9c)"><g clip-path="url(#ed708b7df8)"><g clip-path="url(#8452b86443)"><g clip-path="url(#a4e7feaeb0)"><path fill="#094b70" d="M 127.65625 138.800781 C 115.929688 79.324219 154.773438 21.390625 214.253906 9.664062 C 273.734375 -2.066406 331.660156 36.777344 343.390625 96.257812 C 355.117188 155.742188 316.277344 213.664062 256.792969 225.394531 C 197.3125 237.125 139.386719 198.273438 127.65625 138.800781 Z M 325.648438 99.757812 C 325.359375 98.28125 325.03125 96.816406 324.667969 95.355469 C 324.304688 93.898438 323.90625 92.449219 323.472656 91.007812 C 323.039062 89.570312 322.570312 88.140625 322.066406 86.726562 C 321.5625 85.308594 321.023438 83.90625 320.449219 82.515625 C 319.875 81.125 319.269531 79.75 318.628906 78.390625 C 317.988281 77.03125 317.316406 75.6875 316.609375 74.359375 C 315.902344 73.035156 315.164062 71.726562 314.394531 70.433594 C 313.621094 69.144531 312.820312 67.871094 311.988281 66.621094 C 311.152344 65.371094 310.289062 64.140625 309.398438 62.929688 C 308.503906 61.722656 307.582031 60.535156 306.628906 59.371094 C 305.675781 58.207031 304.699219 57.066406 303.691406 55.953125 C 302.683594 54.835938 301.648438 53.746094 300.585938 52.683594 C 299.523438 51.617188 298.4375 50.578125 297.324219 49.566406 C 296.214844 48.554688 295.078125 47.574219 293.917969 46.617188 C 292.757812 45.660156 291.574219 44.734375 290.367188 43.835938 C 289.160156 42.941406 287.933594 42.070312 286.683594 41.234375 C 285.4375 40.398438 284.167969 39.589844 282.878906 38.816406 C 281.59375 38.042969 280.285156 37.296875 278.960938 36.585938 C 277.636719 35.875 276.292969 35.199219 274.9375 34.554688 C 273.578125 33.910156 272.207031 33.296875 270.816406 32.71875 C 269.429688 32.140625 268.027344 31.597656 266.613281 31.089844 C 265.199219 30.582031 263.773438 30.109375 262.335938 29.667969 C 260.898438 29.230469 259.449219 28.828125 257.992188 28.460938 C 256.535156 28.089844 255.066406 27.757812 253.59375 27.464844 C 252.121094 27.167969 250.640625 26.910156 249.152344 26.6875 C 247.667969 26.460938 246.175781 26.277344 244.679688 26.125 C 243.183594 25.976562 241.683594 25.863281 240.183594 25.789062 C 238.683594 25.710938 237.179688 25.671875 235.675781 25.667969 C 234.171875 25.667969 232.671875 25.699219 231.167969 25.773438 C 229.667969 25.84375 228.167969 25.953125 226.671875 26.097656 C 225.175781 26.242188 223.683594 26.421875 222.195312 26.640625 C 220.707031 26.859375 219.226562 27.113281 217.753906 27.40625 C 216.277344 27.695312 214.808594 28.023438 213.351562 28.386719 C 211.890625 28.746094 210.441406 29.144531 209.003906 29.582031 C 207.566406 30.015625 206.136719 30.484375 204.71875 30.988281 C 203.304688 31.492188 201.902344 32.03125 200.511719 32.601562 C 199.121094 33.175781 197.746094 33.78125 196.386719 34.421875 C 195.027344 35.0625 193.683594 35.738281 192.355469 36.445312 C 191.027344 37.148438 189.71875 37.890625 188.429688 38.660156 C 187.136719 39.429688 185.867188 40.230469 184.617188 41.066406 C 183.363281 41.898438 182.132812 42.761719 180.925781 43.65625 C 179.714844 44.550781 178.53125 45.472656 177.367188 46.421875 C 176.203125 47.375 175.0625 48.355469 173.945312 49.363281 C 172.832031 50.371094 171.742188 51.40625 170.675781 52.464844 C 169.613281 53.527344 168.574219 54.613281 167.5625 55.726562 C 166.550781 56.839844 165.566406 57.976562 164.613281 59.136719 C 163.65625 60.296875 162.730469 61.480469 161.832031 62.6875 C 160.933594 63.890625 160.066406 65.117188 159.230469 66.367188 C 158.390625 67.617188 157.585938 68.882812 156.8125 70.171875 C 156.035156 71.460938 155.292969 72.765625 154.582031 74.09375 C 153.871094 75.417969 153.191406 76.757812 152.546875 78.117188 C 151.902344 79.472656 151.292969 80.847656 150.714844 82.234375 C 150.136719 83.621094 149.59375 85.023438 149.085938 86.4375 C 148.574219 87.851562 148.101562 89.28125 147.664062 90.71875 C 147.222656 92.15625 146.820312 93.601562 146.453125 95.0625 C 146.085938 96.519531 145.753906 97.984375 145.457031 99.457031 C 145.164062 100.933594 144.902344 102.414062 144.679688 103.898438 C 144.457031 105.386719 144.269531 106.878906 144.121094 108.375 C 143.972656 109.871094 143.859375 111.367188 143.78125 112.871094 C 143.707031 114.371094 143.667969 115.875 143.664062 117.375 C 143.660156 118.878906 143.695312 120.382812 143.765625 121.882812 C 143.839844 123.386719 143.945312 124.886719 144.089844 126.382812 C 144.234375 127.878906 144.417969 129.371094 144.636719 130.855469 C 144.855469 132.34375 145.109375 133.824219 145.398438 135.300781 C 145.691406 136.777344 146.015625 138.242188 146.378906 139.703125 C 146.742188 141.160156 147.140625 142.609375 147.574219 144.050781 C 148.007812 145.488281 148.476562 146.917969 148.980469 148.332031 C 149.484375 149.75 150.023438 151.152344 150.597656 152.542969 C 151.171875 153.929688 151.777344 155.304688 152.417969 156.667969 C 153.058594 158.027344 153.730469 159.371094 154.4375 160.699219 C 155.144531 162.023438 155.882812 163.332031 156.652344 164.625 C 157.425781 165.914062 158.226562 167.1875 159.058594 168.4375 C 159.894531 169.6875 160.757812 170.917969 161.648438 172.128906 C 162.542969 173.335938 163.464844 174.523438 164.417969 175.6875 C 165.371094 176.851562 166.351562 177.988281 167.355469 179.105469 C 168.363281 180.222656 169.398438 181.3125 170.460938 182.375 C 171.523438 183.441406 172.609375 184.480469 173.722656 185.492188 C 174.832031 186.503906 175.96875 187.484375 177.128906 188.441406 C 178.289062 189.398438 179.472656 190.324219 180.679688 191.222656 C 181.886719 192.117188 183.113281 192.984375 184.363281 193.824219 C 185.609375 194.660156 186.878906 195.464844 188.167969 196.242188 C 189.457031 197.015625 190.761719 197.761719 192.085938 198.472656 C 193.410156 199.179688 194.753906 199.859375 196.109375 200.503906 C 197.46875 201.148438 198.839844 201.761719 200.230469 202.339844 C 201.617188 202.917969 203.019531 203.460938 204.433594 203.96875 C 205.847656 204.476562 207.273438 204.949219 208.710938 205.390625 C 210.148438 205.828125 211.597656 206.230469 213.054688 206.597656 C 214.511719 206.96875 215.980469 207.296875 217.453125 207.59375 C 218.925781 207.890625 220.40625 208.148438 221.894531 208.371094 C 223.382812 208.597656 224.871094 208.78125 226.367188 208.933594 C 227.863281 209.082031 229.363281 209.195312 230.863281 209.269531 C 232.367188 209.347656 233.867188 209.386719 235.371094 209.390625 C 236.875 209.390625 238.378906 209.355469 239.878906 209.285156 C 241.378906 209.214844 242.878906 209.105469 244.375 208.960938 C 245.871094 208.816406 247.363281 208.636719 248.851562 208.417969 C 250.339844 208.199219 251.820312 207.945312 253.296875 207.652344 C 254.769531 207.363281 256.234375 207.03125 257.691406 206.667969 C 259.152344 206.304688 260.597656 205.902344 262.039062 205.46875 C 263.476562 205.03125 264.902344 204.5625 266.316406 204.058594 C 267.734375 203.550781 269.136719 203.011719 270.523438 202.4375 C 271.914062 201.863281 273.285156 201.257812 274.644531 200.613281 C 276.003906 199.972656 277.347656 199.300781 278.671875 198.589844 C 280 197.882812 281.304688 197.144531 282.597656 196.375 C 283.886719 195.601562 285.15625 194.800781 286.40625 193.964844 C 287.65625 193.132812 288.886719 192.269531 290.09375 191.375 C 291.300781 190.480469 292.488281 189.558594 293.648438 188.605469 C 294.8125 187.652344 295.949219 186.675781 297.066406 185.667969 C 298.179688 184.660156 299.269531 183.625 300.332031 182.5625 C 301.398438 181.5 302.433594 180.414062 303.445312 179.300781 C 304.457031 178.191406 305.4375 177.054688 306.394531 175.894531 C 307.347656 174.734375 308.273438 173.550781 309.171875 172.34375 C 310.070312 171.140625 310.9375 169.914062 311.773438 168.664062 C 312.609375 167.417969 313.414062 166.148438 314.191406 164.859375 C 314.964844 163.574219 315.707031 162.265625 316.417969 160.941406 C 317.128906 159.617188 317.808594 158.277344 318.453125 156.921875 C 319.097656 155.5625 319.707031 154.191406 320.285156 152.804688 C 320.863281 151.417969 321.40625 150.015625 321.914062 148.601562 C 322.425781 147.1875 322.898438 145.761719 323.339844 144.324219 C 323.777344 142.886719 324.179688 141.441406 324.550781 139.984375 C 324.917969 138.527344 325.25 137.0625 325.546875 135.589844 C 325.84375 134.117188 326.101562 132.636719 326.328125 131.148438 C 326.550781 129.664062 326.738281 128.171875 326.886719 126.679688 C 327.039062 125.183594 327.152344 123.683594 327.230469 122.183594 C 327.308594 120.683594 327.347656 119.183594 327.351562 117.679688 C 327.355469 116.175781 327.324219 114.675781 327.253906 113.171875 C 327.183594 111.671875 327.074219 110.171875 326.933594 108.675781 C 326.789062 107.183594 326.609375 105.691406 326.394531 104.203125 C 326.175781 102.714844 325.921875 101.234375 325.632812 99.761719 Z M 325.648438 99.757812 " fill-opacity="1" fill-rule="nonzero"/></g></g></g><g clip-path="url(#974866bc15)"><g clip-path="url(#eaa8f8ec8d)"><g clip-path="url(#13d203c7c3)"><path fill="#094b70" d="M 131.355469 218.988281 C 131.164062 218.007812 131.117188 217.019531 131.214844 216.023438 C 131.316406 215.03125 131.554688 214.070312 131.9375 213.148438 C 132.320312 212.222656 132.832031 211.375 133.464844 210.605469 C 134.097656 209.832031 134.832031 209.167969 135.664062 208.609375 C 136.496094 208.054688 137.386719 207.632812 138.34375 207.339844 C 139.300781 207.050781 140.277344 206.902344 141.277344 206.902344 C 142.277344 206.902344 143.257812 207.042969 144.214844 207.332031 C 145.171875 207.621094 146.066406 208.042969 146.898438 208.597656 L 179.992188 230.609375 C 180.585938 230.957031 181.144531 231.359375 181.65625 231.820312 C 182.171875 232.277344 182.632812 232.785156 183.042969 233.339844 C 183.453125 233.894531 183.804688 234.484375 184.09375 235.113281 C 184.382812 235.738281 184.605469 236.386719 184.761719 237.058594 C 184.917969 237.730469 185.007812 238.410156 185.023438 239.101562 C 185.042969 239.789062 184.992188 240.472656 184.871094 241.152344 C 184.746094 241.832031 184.558594 242.492188 184.300781 243.132812 C 184.042969 243.773438 183.726562 244.378906 183.34375 244.953125 C 182.964844 245.53125 182.53125 246.058594 182.039062 246.546875 C 181.550781 247.03125 181.015625 247.464844 180.441406 247.839844 C 179.863281 248.21875 179.253906 248.535156 178.609375 248.785156 C 177.96875 249.039062 177.308594 249.222656 176.628906 249.339844 C 175.949219 249.460938 175.265625 249.507812 174.574219 249.484375 C 173.886719 249.460938 173.207031 249.371094 172.535156 249.210938 C 171.863281 249.046875 171.21875 248.820312 170.59375 248.527344 C 169.96875 248.234375 169.378906 247.878906 168.828125 247.464844 L 135.734375 225.453125 C 134.601562 224.710938 133.65625 223.78125 132.898438 222.660156 C 132.140625 221.539062 131.625 220.316406 131.355469 218.988281 Z M 131.355469 218.988281 " fill-opacity="1" fill-rule="nonzero"/></g></g></g><g clip-path="url(#d10cc3cbb7)"><g clip-path="url(#babb048f37)"><g clip-path="url(#af8251045e)"><path fill="#094b70" d="M 61.699219 356.566406 C 61.246094 354.273438 61.253906 351.980469 61.722656 349.691406 C 62.195312 347.402344 63.097656 345.296875 64.421875 343.371094 L 124.863281 255.515625 C 125.183594 255.046875 125.527344 254.597656 125.894531 254.160156 C 126.261719 253.726562 126.648438 253.3125 127.054688 252.914062 C 127.464844 252.519531 127.890625 252.140625 128.332031 251.789062 C 128.777344 251.433594 129.238281 251.101562 129.714844 250.789062 C 130.191406 250.480469 130.683594 250.195312 131.1875 249.933594 C 131.695312 249.671875 132.210938 249.4375 132.738281 249.226562 C 133.265625 249.015625 133.804688 248.832031 134.351562 248.671875 C 134.898438 248.515625 135.449219 248.386719 136.007812 248.28125 C 136.566406 248.179688 137.128906 248.101562 137.699219 248.054688 C 138.265625 248.003906 138.832031 247.984375 139.398438 247.992188 C 139.96875 248 140.535156 248.035156 141.101562 248.097656 C 141.664062 248.164062 142.226562 248.253906 142.78125 248.371094 C 143.339844 248.488281 143.886719 248.636719 144.429688 248.808594 C 144.972656 248.980469 145.503906 249.179688 146.027344 249.402344 C 146.546875 249.628906 147.058594 249.878906 147.558594 250.152344 C 148.054688 250.425781 148.539062 250.726562 149.007812 251.046875 C 149.476562 251.371094 149.925781 251.714844 150.363281 252.082031 C 150.796875 252.445312 151.210938 252.832031 151.609375 253.242188 C 152.003906 253.648438 152.382812 254.074219 152.734375 254.519531 C 153.089844 254.964844 153.421875 255.421875 153.734375 255.902344 C 154.042969 256.378906 154.328125 256.867188 154.589844 257.375 C 154.851562 257.878906 155.085938 258.394531 155.296875 258.921875 C 155.507812 259.453125 155.691406 259.988281 155.851562 260.535156 C 156.007812 261.082031 156.136719 261.632812 156.242188 262.195312 C 156.34375 262.753906 156.421875 263.316406 156.46875 263.882812 C 156.515625 264.449219 156.539062 265.015625 156.53125 265.585938 C 156.523438 266.152344 156.488281 266.71875 156.425781 267.285156 C 156.359375 267.851562 156.269531 268.410156 156.152344 268.96875 C 156.035156 269.523438 155.886719 270.074219 155.714844 270.613281 C 155.542969 271.15625 155.34375 271.6875 155.121094 272.210938 C 154.894531 272.734375 154.644531 273.242188 154.371094 273.742188 C 154.097656 274.238281 153.796875 274.722656 153.476562 275.191406 L 93.035156 363.042969 C 92.554688 363.746094 92.023438 364.40625 91.445312 365.027344 C 90.867188 365.648438 90.246094 366.226562 89.585938 366.757812 C 88.921875 367.289062 88.222656 367.769531 87.488281 368.195312 C 86.757812 368.625 85.996094 368.996094 85.207031 369.3125 C 84.417969 369.632812 83.613281 369.890625 82.785156 370.085938 C 81.960938 370.285156 81.125 370.421875 80.277344 370.5 C 79.433594 370.574219 78.585938 370.585938 77.738281 370.539062 C 76.890625 370.488281 76.050781 370.378906 75.21875 370.207031 C 74.386719 370.035156 73.570312 369.804688 72.773438 369.511719 C 71.976562 369.21875 71.203125 368.871094 70.457031 368.46875 C 69.710938 368.0625 68.996094 367.605469 68.316406 367.09375 C 67.636719 366.585938 67 366.027344 66.402344 365.425781 C 65.804688 364.820312 65.253906 364.179688 64.75 363.492188 C 64.246094 362.808594 63.796875 362.09375 63.398438 361.34375 C 63 360.589844 62.65625 359.816406 62.375 359.015625 C 62.089844 358.214844 61.867188 357.398438 61.703125 356.566406 Z M 61.699219 356.566406 " fill-opacity="1" fill-rule="nonzero"/></g></g></g><g clip-path="url(#cb5b5fc24f)"><g clip-path="url(#a77330b73d)"><g clip-path="url(#9944600d14)"><path fill="#094b70" d="M 159.515625 132.332031 C 156.773438 118.4375 157.132812 99.289062 168.378906 76.648438 C 178.246094 56.773438 197.09375 44.792969 222.871094 41.996094 C 234.800781 40.746094 246.640625 41.308594 258.398438 43.679688 C 258.746094 43.761719 259.078125 43.878906 259.402344 44.023438 C 259.722656 44.171875 260.03125 44.347656 260.316406 44.554688 C 260.605469 44.761719 260.871094 44.996094 261.113281 45.253906 C 261.355469 45.515625 261.570312 45.796875 261.757812 46.097656 C 261.945312 46.398438 262.101562 46.714844 262.226562 47.046875 C 262.351562 47.378906 262.445312 47.71875 262.503906 48.070312 C 262.5625 48.421875 262.585938 48.773438 262.574219 49.128906 C 262.5625 49.480469 262.519531 49.832031 262.4375 50.179688 C 262.359375 50.523438 262.246094 50.859375 262.101562 51.183594 C 261.957031 51.507812 261.78125 51.8125 261.574219 52.101562 C 261.371094 52.390625 261.136719 52.660156 260.878906 52.902344 C 260.621094 53.144531 260.34375 53.363281 260.042969 53.550781 C 259.742188 53.742188 259.425781 53.898438 259.09375 54.027344 C 258.761719 54.152344 258.421875 54.246094 258.074219 54.308594 C 257.722656 54.367188 257.371094 54.394531 257.015625 54.382812 C 256.660156 54.375 256.3125 54.332031 255.964844 54.253906 C 245.308594 52.160156 234.578125 51.679688 223.777344 52.808594 C 201.707031 55.273438 186.355469 64.914062 178.117188 81.464844 C 157.808594 122.332031 177.898438 149.890625 178.105469 150.164062 C 178.328125 150.449219 178.523438 150.753906 178.683594 151.074219 C 178.847656 151.398438 178.976562 151.734375 179.070312 152.082031 C 179.164062 152.429688 179.226562 152.78125 179.25 153.144531 C 179.273438 153.503906 179.261719 153.863281 179.214844 154.21875 C 179.167969 154.578125 179.085938 154.929688 178.96875 155.269531 C 178.851562 155.609375 178.703125 155.9375 178.519531 156.25 C 178.339844 156.5625 178.125 156.851562 177.886719 157.121094 C 177.644531 157.390625 177.382812 157.632812 177.09375 157.851562 C 176.804688 158.066406 176.496094 158.253906 176.171875 158.40625 C 175.84375 158.5625 175.507812 158.683594 175.15625 158.773438 C 174.808594 158.859375 174.453125 158.914062 174.089844 158.929688 C 173.730469 158.945312 173.371094 158.929688 173.015625 158.875 C 172.65625 158.820312 172.308594 158.730469 171.972656 158.605469 C 171.632812 158.480469 171.308594 158.324219 171 158.136719 C 170.691406 157.945312 170.40625 157.730469 170.144531 157.484375 C 169.878906 157.238281 169.640625 156.96875 169.429688 156.675781 C 168.890625 155.992188 162.4375 147.15625 159.515625 132.332031 Z M 159.515625 132.332031 " fill-opacity="1" fill-rule="nonzero"/></g></g></g></g></g></g></svg>