<svg xmlns="http://www.w3.org/2000/svg" xmlns:xlink="http://www.w3.org/1999/xlink" width="500" zoomAndPan="magnify" viewBox="0 0 375 374.999991" height="500" preserveAspectRatio="xMidYMid meet" version="1.0"><path fill="#c2cc00" d="M 8.128906 89.03125 C 8.128906 89.539062 8.03125 90.03125 7.835938 90.503906 C 7.640625 90.976562 7.359375 91.390625 7 91.753906 C 6.636719 92.113281 6.222656 92.390625 5.75 92.585938 C 5.277344 92.78125 4.785156 92.878906 4.277344 92.878906 C 3.765625 92.878906 3.273438 92.78125 2.804688 92.585938 C 2.332031 92.386719 1.914062 92.109375 1.554688 91.746094 C 1.195312 91.386719 0.917969 90.96875 0.722656 90.496094 C 0.527344 90.027344 0.429688 89.535156 0.429688 89.023438 C 0.433594 88.511719 0.53125 88.023438 0.726562 87.550781 C 0.921875 87.078125 1.203125 86.664062 1.5625 86.304688 C 1.925781 85.941406 2.34375 85.664062 2.816406 85.472656 C 3.289062 85.277344 3.777344 85.179688 4.289062 85.179688 C 4.800781 85.183594 5.289062 85.28125 5.757812 85.476562 C 6.230469 85.671875 6.644531 85.953125 7.003906 86.3125 C 7.363281 86.671875 7.640625 87.089844 7.835938 87.558594 C 8.03125 88.03125 8.128906 88.519531 8.128906 89.03125 Z M 45 85.179688 C 44.488281 85.179688 43.996094 85.277344 43.523438 85.472656 C 43.050781 85.664062 42.636719 85.941406 42.273438 86.304688 C 41.910156 86.664062 41.632812 87.078125 41.4375 87.550781 C 41.238281 88.023438 41.140625 88.511719 41.140625 89.023438 C 41.140625 89.535156 41.234375 90.027344 41.429688 90.496094 C 41.625 90.96875 41.902344 91.386719 42.265625 91.746094 C 42.625 92.109375 43.039062 92.386719 43.511719 92.585938 C 43.984375 92.78125 44.476562 92.878906 44.984375 92.878906 C 45.496094 92.878906 45.988281 92.78125 46.460938 92.585938 C 46.929688 92.390625 47.347656 92.113281 47.707031 91.753906 C 48.070312 91.390625 48.347656 90.976562 48.542969 90.503906 C 48.738281 90.03125 48.835938 89.539062 48.835938 89.03125 C 48.835938 88.519531 48.738281 88.03125 48.546875 87.558594 C 48.351562 87.089844 48.074219 86.671875 47.714844 86.3125 C 47.355469 85.953125 46.9375 85.671875 46.46875 85.476562 C 45.996094 85.28125 45.507812 85.183594 45 85.179688 Z M 85.699219 85.179688 C 85.1875 85.179688 84.695312 85.277344 84.226562 85.472656 C 83.753906 85.667969 83.335938 85.949219 82.976562 86.308594 C 82.617188 86.667969 82.335938 87.085938 82.140625 87.558594 C 81.945312 88.027344 81.847656 88.519531 81.847656 89.03125 C 81.847656 89.539062 81.945312 90.03125 82.140625 90.503906 C 82.335938 90.972656 82.617188 91.390625 82.976562 91.75 C 83.335938 92.113281 83.753906 92.390625 84.226562 92.585938 C 84.695312 92.78125 85.1875 92.878906 85.699219 92.878906 C 86.207031 92.878906 86.699219 92.78125 87.171875 92.585938 C 87.640625 92.390625 88.058594 92.113281 88.417969 91.75 C 88.78125 91.390625 89.058594 90.972656 89.253906 90.503906 C 89.449219 90.03125 89.546875 89.539062 89.546875 89.03125 C 89.546875 88.519531 89.449219 88.027344 89.253906 87.558594 C 89.058594 87.085938 88.78125 86.667969 88.417969 86.308594 C 88.058594 85.949219 87.640625 85.667969 87.171875 85.472656 C 86.699219 85.277344 86.207031 85.179688 85.699219 85.179688 Z M 126.425781 85.179688 C 125.917969 85.179688 125.425781 85.277344 124.953125 85.472656 C 124.480469 85.667969 124.066406 85.949219 123.707031 86.308594 C 123.34375 86.667969 123.066406 87.085938 122.871094 87.558594 C 122.675781 88.027344 122.578125 88.519531 122.578125 89.03125 C 122.578125 89.539062 122.675781 90.03125 122.871094 90.503906 C 123.066406 90.972656 123.34375 91.390625 123.707031 91.75 C 124.066406 92.113281 124.480469 92.390625 124.953125 92.585938 C 125.425781 92.78125 125.917969 92.878906 126.425781 92.878906 C 126.9375 92.878906 127.429688 92.78125 127.898438 92.585938 C 128.371094 92.390625 128.785156 92.113281 129.148438 91.75 C 129.507812 91.390625 129.785156 90.972656 129.980469 90.503906 C 130.175781 90.03125 130.273438 89.539062 130.273438 89.03125 C 130.273438 88.519531 130.175781 88.027344 129.980469 87.558594 C 129.785156 87.085938 129.507812 86.667969 129.148438 86.308594 C 128.785156 85.949219 128.371094 85.667969 127.898438 85.472656 C 127.429688 85.277344 126.9375 85.179688 126.425781 85.179688 Z M 167.136719 85.179688 C 166.625 85.179688 166.132812 85.277344 165.664062 85.472656 C 165.191406 85.667969 164.773438 85.949219 164.414062 86.308594 C 164.054688 86.667969 163.773438 87.085938 163.578125 87.558594 C 163.386719 88.027344 163.289062 88.519531 163.289062 89.03125 C 163.289062 89.539062 163.386719 90.03125 163.578125 90.503906 C 163.773438 90.972656 164.054688 91.390625 164.414062 91.75 C 164.773438 92.113281 165.191406 92.390625 165.664062 92.585938 C 166.132812 92.78125 166.625 92.878906 167.136719 92.878906 C 167.644531 92.878906 168.136719 92.78125 168.609375 92.585938 C 169.078125 92.390625 169.496094 92.113281 169.855469 91.75 C 170.21875 91.390625 170.496094 90.972656 170.691406 90.503906 C 170.886719 90.03125 170.984375 89.539062 170.984375 89.03125 C 170.984375 88.519531 170.886719 88.027344 170.6875 87.554688 C 170.492188 87.078125 170.214844 86.664062 169.851562 86.300781 C 169.488281 85.941406 169.070312 85.664062 168.59375 85.46875 C 168.121094 85.273438 167.628906 85.179688 167.117188 85.179688 Z M 207.824219 85.179688 C 207.3125 85.179688 206.824219 85.277344 206.351562 85.472656 C 205.878906 85.664062 205.460938 85.941406 205.101562 86.304688 C 204.738281 86.664062 204.457031 87.078125 204.261719 87.550781 C 204.066406 88.023438 203.96875 88.511719 203.964844 89.023438 C 203.964844 89.535156 204.0625 90.027344 204.257812 90.496094 C 204.453125 90.96875 204.730469 91.386719 205.089844 91.746094 C 205.449219 92.109375 205.867188 92.386719 206.339844 92.585938 C 206.808594 92.78125 207.300781 92.878906 207.8125 92.878906 C 208.324219 92.878906 208.8125 92.78125 209.285156 92.585938 C 209.757812 92.390625 210.175781 92.113281 210.535156 91.753906 C 210.894531 91.390625 211.175781 90.976562 211.371094 90.503906 C 211.566406 90.03125 211.664062 89.539062 211.664062 89.03125 C 211.664062 88.519531 211.566406 88.03125 211.371094 87.558594 C 211.175781 87.089844 210.898438 86.671875 210.539062 86.3125 C 210.179688 85.953125 209.765625 85.671875 209.292969 85.476562 C 208.824219 85.28125 208.335938 85.183594 207.824219 85.179688 Z M 248.535156 85.179688 C 248.023438 85.183594 247.535156 85.285156 247.066406 85.484375 C 246.597656 85.683594 246.183594 85.964844 245.824219 86.324219 C 245.46875 86.6875 245.191406 87.105469 245 87.578125 C 244.808594 88.050781 244.710938 88.539062 244.714844 89.050781 C 244.71875 89.558594 244.816406 90.046875 245.015625 90.519531 C 245.210938 90.988281 245.492188 91.402344 245.851562 91.761719 C 246.214844 92.121094 246.632812 92.398438 247.101562 92.589844 C 247.574219 92.785156 248.0625 92.878906 248.574219 92.878906 C 249.082031 92.878906 249.574219 92.777344 250.042969 92.582031 C 250.511719 92.386719 250.929688 92.109375 251.289062 91.746094 C 251.648438 91.386719 251.925781 90.972656 252.121094 90.5 C 252.316406 90.03125 252.410156 89.539062 252.410156 89.03125 C 252.414062 88.515625 252.3125 88.023438 252.117188 87.550781 C 251.917969 87.078125 251.636719 86.660156 251.273438 86.296875 C 250.910156 85.9375 250.492188 85.660156 250.015625 85.464844 C 249.539062 85.273438 249.046875 85.175781 248.535156 85.179688 Z M 289.234375 85.179688 C 288.722656 85.179688 288.230469 85.277344 287.761719 85.472656 C 287.289062 85.667969 286.871094 85.949219 286.511719 86.308594 C 286.152344 86.667969 285.875 87.085938 285.679688 87.558594 C 285.484375 88.027344 285.386719 88.519531 285.386719 89.03125 C 285.386719 89.539062 285.484375 90.03125 285.679688 90.503906 C 285.875 90.972656 286.152344 91.390625 286.511719 91.75 C 286.871094 92.113281 287.289062 92.390625 287.761719 92.585938 C 288.230469 92.78125 288.722656 92.878906 289.234375 92.878906 C 289.742188 92.878906 290.234375 92.78125 290.707031 92.585938 C 291.175781 92.390625 291.59375 92.113281 291.953125 91.75 C 292.316406 91.390625 292.59375 90.972656 292.789062 90.503906 C 292.984375 90.03125 293.082031 89.539062 293.082031 89.03125 C 293.082031 88.519531 292.984375 88.027344 292.789062 87.558594 C 292.59375 87.085938 292.316406 86.667969 291.953125 86.308594 C 291.59375 85.949219 291.175781 85.667969 290.707031 85.472656 C 290.234375 85.277344 289.742188 85.179688 289.234375 85.179688 Z M 329.941406 85.179688 C 329.433594 85.179688 328.941406 85.277344 328.46875 85.472656 C 328 85.667969 327.582031 85.949219 327.222656 86.308594 C 326.859375 86.667969 326.582031 87.085938 326.386719 87.558594 C 326.191406 88.027344 326.09375 88.519531 326.09375 89.03125 C 326.09375 89.539062 326.191406 90.03125 326.386719 90.503906 C 326.582031 90.972656 326.859375 91.390625 327.222656 91.75 C 327.582031 92.113281 328 92.390625 328.46875 92.585938 C 328.941406 92.78125 329.433594 92.878906 329.941406 92.878906 C 330.453125 92.878906 330.945312 92.78125 331.414062 92.585938 C 331.886719 92.390625 332.304688 92.113281 332.664062 91.75 C 333.023438 91.390625 333.300781 90.972656 333.496094 90.503906 C 333.691406 90.03125 333.789062 89.539062 333.789062 89.03125 C 333.789062 88.519531 333.691406 88.027344 333.496094 87.558594 C 333.300781 87.085938 333.023438 86.667969 332.664062 86.308594 C 332.304688 85.949219 331.886719 85.667969 331.414062 85.472656 C 330.945312 85.277344 330.453125 85.179688 329.941406 85.179688 Z M 370.652344 92.867188 C 371.164062 92.867188 371.652344 92.769531 372.125 92.574219 C 372.597656 92.378906 373.011719 92.101562 373.375 91.742188 C 373.734375 91.378906 374.011719 90.960938 374.207031 90.492188 C 374.402344 90.019531 374.5 89.527344 374.5 89.015625 C 374.5 88.507812 374.402344 88.015625 374.207031 87.542969 C 374.007812 87.070312 373.730469 86.65625 373.371094 86.296875 C 373.007812 85.933594 372.589844 85.65625 372.117188 85.460938 C 371.648438 85.269531 371.15625 85.171875 370.644531 85.171875 C 370.132812 85.171875 369.644531 85.269531 369.171875 85.46875 C 368.699219 85.664062 368.285156 85.941406 367.925781 86.304688 C 367.5625 86.667969 367.285156 87.082031 367.09375 87.554688 C 366.898438 88.027344 366.800781 88.519531 366.804688 89.03125 C 366.804688 89.539062 366.902344 90.03125 367.097656 90.5 C 367.292969 90.96875 367.574219 91.386719 367.933594 91.746094 C 368.292969 92.105469 368.710938 92.382812 369.179688 92.578125 C 369.652344 92.769531 370.140625 92.867188 370.652344 92.867188 Z M 4.289062 124.550781 C 3.777344 124.550781 3.289062 124.648438 2.816406 124.839844 C 2.34375 125.035156 1.925781 125.3125 1.5625 125.671875 C 1.203125 126.035156 0.921875 126.449219 0.726562 126.921875 C 0.53125 127.390625 0.433594 127.882812 0.429688 128.394531 C 0.429688 128.90625 0.527344 129.394531 0.722656 129.867188 C 0.917969 130.339844 1.195312 130.757812 1.554688 131.117188 C 1.914062 131.480469 2.332031 131.757812 2.804688 131.953125 C 3.273438 132.152344 3.765625 132.25 4.277344 132.25 C 4.785156 132.25 5.277344 132.152344 5.75 131.957031 C 6.222656 131.761719 6.636719 131.484375 7 131.121094 C 7.359375 130.761719 7.640625 130.347656 7.835938 129.875 C 8.03125 129.402344 8.128906 128.910156 8.128906 128.402344 C 8.128906 127.890625 8.03125 127.402344 7.835938 126.929688 C 7.640625 126.460938 7.363281 126.042969 7.003906 125.683594 C 6.644531 125.320312 6.230469 125.042969 5.757812 124.847656 C 5.289062 124.652344 4.800781 124.554688 4.289062 124.550781 Z M 45 124.550781 C 44.488281 124.550781 43.996094 124.648438 43.523438 124.839844 C 43.050781 125.035156 42.636719 125.3125 42.273438 125.671875 C 41.910156 126.035156 41.632812 126.449219 41.4375 126.921875 C 41.238281 127.390625 41.140625 127.882812 41.140625 128.394531 C 41.140625 128.90625 41.234375 129.394531 41.429688 129.867188 C 41.625 130.339844 41.902344 130.757812 42.265625 131.117188 C 42.625 131.480469 43.039062 131.757812 43.511719 131.953125 C 43.984375 132.152344 44.476562 132.25 44.984375 132.25 C 45.496094 132.25 45.988281 132.152344 46.460938 131.957031 C 46.929688 131.761719 47.347656 131.484375 47.707031 131.121094 C 48.070312 130.761719 48.347656 130.347656 48.542969 129.875 C 48.738281 129.402344 48.835938 128.910156 48.835938 128.402344 C 48.835938 127.890625 48.738281 127.402344 48.546875 126.929688 C 48.351562 126.460938 48.074219 126.042969 47.714844 125.683594 C 47.355469 125.320312 46.9375 125.042969 46.46875 124.847656 C 45.996094 124.652344 45.507812 124.554688 45 124.550781 Z M 85.699219 124.550781 C 85.1875 124.550781 84.695312 124.648438 84.226562 124.84375 C 83.753906 125.039062 83.335938 125.320312 82.976562 125.679688 C 82.617188 126.039062 82.335938 126.457031 82.140625 126.929688 C 81.945312 127.398438 81.847656 127.890625 81.847656 128.402344 C 81.847656 128.910156 81.945312 129.402344 82.140625 129.875 C 82.335938 130.34375 82.617188 130.761719 82.976562 131.121094 C 83.335938 131.484375 83.753906 131.761719 84.226562 131.957031 C 84.695312 132.152344 85.1875 132.25 85.699219 132.25 C 86.207031 132.25 86.699219 132.152344 87.171875 131.957031 C 87.640625 131.761719 88.058594 131.484375 88.417969 131.121094 C 88.78125 130.761719 89.058594 130.34375 89.253906 129.875 C 89.449219 129.402344 89.546875 128.910156 89.546875 128.402344 C 89.546875 127.890625 89.449219 127.398438 89.253906 126.929688 C 89.058594 126.457031 88.78125 126.039062 88.417969 125.679688 C 88.058594 125.320312 87.640625 125.039062 87.171875 124.84375 C 86.699219 124.648438 86.207031 124.550781 85.699219 124.550781 Z M 126.425781 124.550781 C 125.917969 124.550781 125.425781 124.648438 124.953125 124.84375 C 124.480469 125.039062 124.066406 125.320312 123.707031 125.679688 C 123.34375 126.039062 123.066406 126.457031 122.871094 126.929688 C 122.675781 127.398438 122.578125 127.890625 122.578125 128.402344 C 122.578125 128.910156 122.675781 129.402344 122.871094 129.875 C 123.066406 130.34375 123.34375 130.761719 123.707031 131.121094 C 124.066406 131.484375 124.480469 131.761719 124.953125 131.957031 C 125.425781 132.152344 125.917969 132.25 126.425781 132.25 C 126.9375 132.25 127.429688 132.152344 127.898438 131.957031 C 128.371094 131.761719 128.785156 131.484375 129.148438 131.121094 C 129.507812 130.761719 129.785156 130.34375 129.980469 129.875 C 130.175781 129.402344 130.273438 128.910156 130.273438 128.402344 C 130.273438 127.890625 130.175781 127.398438 129.980469 126.929688 C 129.785156 126.457031 129.507812 126.039062 129.148438 125.679688 C 128.785156 125.320312 128.371094 125.039062 127.898438 124.84375 C 127.429688 124.648438 126.9375 124.550781 126.425781 124.550781 Z M 167.136719 124.550781 C 166.625 124.550781 166.132812 124.648438 165.664062 124.84375 C 165.191406 125.039062 164.773438 125.320312 164.414062 125.679688 C 164.054688 126.039062 163.773438 126.457031 163.578125 126.929688 C 163.386719 127.398438 163.289062 127.890625 163.289062 128.402344 C 163.289062 128.910156 163.386719 129.402344 163.578125 129.875 C 163.773438 130.34375 164.054688 130.761719 164.414062 131.121094 C 164.773438 131.484375 165.191406 131.761719 165.664062 131.957031 C 166.132812 132.152344 166.625 132.25 167.136719 132.25 C 167.644531 132.25 168.136719 132.152344 168.609375 131.957031 C 169.078125 131.761719 169.496094 131.484375 169.855469 131.121094 C 170.21875 130.761719 170.496094 130.34375 170.691406 129.875 C 170.886719 129.402344 170.984375 128.910156 170.984375 128.402344 C 170.984375 127.886719 170.886719 127.394531 170.6875 126.921875 C 170.492188 126.449219 170.214844 126.035156 169.851562 125.671875 C 169.488281 125.3125 169.070312 125.035156 168.59375 124.839844 C 168.121094 124.644531 167.628906 124.550781 167.117188 124.550781 Z M 207.84375 124.550781 C 207.335938 124.550781 206.84375 124.648438 206.371094 124.839844 C 205.898438 125.035156 205.480469 125.3125 205.121094 125.671875 C 204.757812 126.035156 204.476562 126.449219 204.28125 126.921875 C 204.085938 127.390625 203.988281 127.882812 203.988281 128.394531 C 203.984375 128.90625 204.082031 129.394531 204.277344 129.867188 C 204.472656 130.339844 204.75 130.757812 205.109375 131.117188 C 205.46875 131.480469 205.886719 131.757812 206.359375 131.953125 C 206.828125 132.152344 207.320312 132.25 207.832031 132.25 C 208.34375 132.25 208.832031 132.152344 209.304688 131.957031 C 209.777344 131.761719 210.195312 131.484375 210.554688 131.121094 C 210.917969 130.761719 211.195312 130.347656 211.390625 129.875 C 211.585938 129.402344 211.683594 128.910156 211.683594 128.402344 C 211.683594 127.890625 211.585938 127.398438 211.390625 126.925781 C 211.195312 126.453125 210.914062 126.035156 210.550781 125.675781 C 210.191406 125.316406 209.773438 125.035156 209.300781 124.84375 C 208.828125 124.648438 208.335938 124.550781 207.824219 124.550781 Z M 248.554688 124.550781 C 248.042969 124.550781 247.550781 124.648438 247.078125 124.839844 C 246.605469 125.035156 246.191406 125.3125 245.828125 125.671875 C 245.464844 126.035156 245.1875 126.449219 244.992188 126.921875 C 244.796875 127.390625 244.695312 127.882812 244.695312 128.394531 C 244.695312 128.90625 244.792969 129.394531 244.984375 129.867188 C 245.179688 130.339844 245.457031 130.757812 245.820312 131.117188 C 246.179688 131.480469 246.597656 131.757812 247.066406 131.953125 C 247.539062 132.152344 248.03125 132.25 248.539062 132.25 C 249.050781 132.25 249.542969 132.152344 250.015625 131.957031 C 250.484375 131.761719 250.902344 131.484375 251.265625 131.121094 C 251.625 130.761719 251.902344 130.347656 252.097656 129.875 C 252.292969 129.402344 252.390625 128.910156 252.390625 128.402344 C 252.390625 127.890625 252.292969 127.398438 252.097656 126.925781 C 251.902344 126.453125 251.625 126.035156 251.261719 125.675781 C 250.898438 125.316406 250.484375 125.035156 250.011719 124.84375 C 249.539062 124.648438 249.046875 124.550781 248.535156 124.550781 Z M 289.253906 124.550781 C 288.742188 124.550781 288.25 124.648438 287.78125 124.84375 C 287.308594 125.039062 286.894531 125.320312 286.53125 125.679688 C 286.171875 126.039062 285.894531 126.457031 285.699219 126.929688 C 285.503906 127.398438 285.40625 127.890625 285.40625 128.402344 C 285.40625 128.910156 285.503906 129.402344 285.699219 129.875 C 285.894531 130.34375 286.171875 130.761719 286.53125 131.121094 C 286.894531 131.484375 287.308594 131.761719 287.78125 131.957031 C 288.25 132.152344 288.742188 132.25 289.253906 132.25 C 289.761719 132.25 290.253906 132.152344 290.726562 131.957031 C 291.195312 131.761719 291.613281 131.484375 291.972656 131.121094 C 292.335938 130.761719 292.613281 130.34375 292.808594 129.875 C 293.003906 129.402344 293.101562 128.910156 293.101562 128.402344 C 293.101562 127.886719 293.003906 127.394531 292.808594 126.921875 C 292.609375 126.449219 292.332031 126.035156 291.96875 125.671875 C 291.605469 125.3125 291.1875 125.035156 290.710938 124.839844 C 290.238281 124.644531 289.746094 124.550781 289.234375 124.550781 Z M 329.960938 124.550781 C 329.453125 124.550781 328.960938 124.648438 328.488281 124.84375 C 328.019531 125.039062 327.601562 125.320312 327.242188 125.679688 C 326.878906 126.039062 326.601562 126.457031 326.40625 126.929688 C 326.210938 127.398438 326.113281 127.890625 326.113281 128.402344 C 326.113281 128.910156 326.210938 129.402344 326.40625 129.875 C 326.601562 130.34375 326.878906 130.761719 327.242188 131.121094 C 327.601562 131.484375 328.019531 131.761719 328.488281 131.957031 C 328.960938 132.152344 329.453125 132.25 329.960938 132.25 C 330.472656 132.25 330.964844 132.152344 331.433594 131.957031 C 331.90625 131.761719 332.324219 131.484375 332.683594 131.121094 C 333.042969 130.761719 333.324219 130.34375 333.519531 129.875 C 333.710938 129.402344 333.8125 128.910156 333.8125 128.402344 C 333.8125 127.886719 333.710938 127.394531 333.515625 126.921875 C 333.320312 126.449219 333.039062 126.035156 332.675781 125.671875 C 332.3125 125.3125 331.894531 125.035156 331.421875 124.839844 C 330.949219 124.644531 330.453125 124.550781 329.941406 124.550781 Z M 370.671875 124.550781 C 370.160156 124.542969 369.667969 124.636719 369.191406 124.824219 C 368.714844 125.011719 368.296875 125.285156 367.929688 125.640625 C 367.5625 126 367.277344 126.410156 367.074219 126.882812 C 366.875 127.351562 366.769531 127.84375 366.765625 128.355469 C 366.757812 128.867188 366.851562 129.359375 367.039062 129.832031 C 367.230469 130.308594 367.503906 130.726562 367.863281 131.09375 C 368.222656 131.457031 368.636719 131.742188 369.105469 131.941406 C 369.578125 132.140625 370.066406 132.242188 370.578125 132.25 C 371.089844 132.253906 371.582031 132.160156 372.058594 131.96875 C 372.53125 131.773438 372.949219 131.5 373.316406 131.140625 C 373.679688 130.78125 373.960938 130.367188 374.160156 129.894531 C 374.355469 129.421875 374.457031 128.933594 374.460938 128.421875 C 374.464844 127.910156 374.367188 127.421875 374.175781 126.949219 C 373.984375 126.480469 373.710938 126.0625 373.355469 125.699219 C 372.996094 125.335938 372.585938 125.058594 372.117188 124.859375 C 371.648438 124.660156 371.160156 124.558594 370.652344 124.550781 Z M 4.289062 163.972656 C 3.78125 163.96875 3.289062 164.066406 2.816406 164.261719 C 2.347656 164.453125 1.929688 164.730469 1.570312 165.089844 C 1.207031 165.449219 0.929688 165.863281 0.730469 166.332031 C 0.535156 166.800781 0.433594 167.292969 0.429688 167.800781 C 0.429688 168.308594 0.523438 168.800781 0.714844 169.273438 C 0.90625 169.746094 1.183594 170.160156 1.542969 170.523438 C 1.898438 170.886719 2.3125 171.167969 2.78125 171.367188 C 3.25 171.5625 3.742188 171.664062 4.25 171.667969 C 4.757812 171.671875 5.25 171.578125 5.722656 171.386719 C 6.195312 171.195312 6.613281 170.921875 6.976562 170.566406 C 7.339844 170.207031 7.621094 169.796875 7.820312 169.328125 C 8.019531 168.859375 8.121094 168.371094 8.128906 167.859375 C 8.132812 167.347656 8.039062 166.851562 7.847656 166.378906 C 7.65625 165.902344 7.378906 165.480469 7.019531 165.117188 C 6.65625 164.75 6.242188 164.46875 5.769531 164.269531 C 5.296875 164.074219 4.800781 163.972656 4.289062 163.972656 Z M 45 163.972656 C 44.488281 163.96875 43.996094 164.066406 43.523438 164.261719 C 43.050781 164.457031 42.632812 164.734375 42.273438 165.09375 C 41.910156 165.453125 41.632812 165.871094 41.433594 166.34375 C 41.238281 166.816406 41.140625 167.304688 41.140625 167.816406 C 41.140625 168.328125 41.238281 168.820312 41.433594 169.292969 C 41.628906 169.761719 41.90625 170.179688 42.265625 170.542969 C 42.628906 170.902344 43.046875 171.179688 43.515625 171.375 C 43.988281 171.570312 44.480469 171.667969 44.992188 171.667969 C 45.503906 171.667969 45.996094 171.570312 46.464844 171.375 C 46.9375 171.179688 47.355469 170.898438 47.714844 170.535156 C 48.074219 170.175781 48.351562 169.757812 48.546875 169.285156 C 48.742188 168.8125 48.839844 168.320312 48.835938 167.808594 C 48.835938 167.300781 48.738281 166.8125 48.542969 166.34375 C 48.347656 165.875 48.070312 165.457031 47.710938 165.097656 C 47.351562 164.738281 46.9375 164.460938 46.464844 164.265625 C 45.996094 164.070312 45.507812 163.972656 45 163.972656 Z M 85.699219 163.972656 C 85.1875 163.972656 84.699219 164.070312 84.226562 164.261719 C 83.757812 164.457031 83.34375 164.734375 82.980469 165.09375 C 82.621094 165.453125 82.34375 165.867188 82.144531 166.339844 C 81.949219 166.808594 81.851562 167.296875 81.847656 167.808594 C 81.847656 168.316406 81.941406 168.808594 82.136719 169.277344 C 82.328125 169.75 82.605469 170.164062 82.960938 170.527344 C 83.320312 170.890625 83.734375 171.167969 84.203125 171.367188 C 84.671875 171.566406 85.164062 171.664062 85.671875 171.667969 C 86.179688 171.671875 86.671875 171.578125 87.144531 171.386719 C 87.617188 171.195312 88.03125 170.921875 88.394531 170.566406 C 88.757812 170.207031 89.039062 169.792969 89.238281 169.328125 C 89.4375 168.859375 89.539062 168.367188 89.546875 167.859375 C 89.546875 167.605469 89.527344 167.351562 89.480469 167.101562 C 89.429688 166.851562 89.359375 166.609375 89.265625 166.375 C 89.167969 166.140625 89.050781 165.914062 88.910156 165.703125 C 88.769531 165.492188 88.613281 165.292969 88.433594 165.113281 C 88.253906 164.933594 88.058594 164.769531 87.847656 164.628906 C 87.636719 164.488281 87.414062 164.367188 87.179688 164.269531 C 86.945312 164.171875 86.703125 164.097656 86.453125 164.046875 C 86.203125 163.996094 85.953125 163.972656 85.699219 163.972656 Z M 126.40625 163.972656 C 125.894531 163.972656 125.40625 164.070312 124.933594 164.265625 C 124.460938 164.460938 124.046875 164.738281 123.683594 165.101562 C 123.324219 165.460938 123.046875 165.878906 122.851562 166.351562 C 122.65625 166.820312 122.558594 167.3125 122.558594 167.824219 C 122.558594 168.335938 122.65625 168.824219 122.851562 169.296875 C 123.046875 169.769531 123.328125 170.183594 123.6875 170.546875 C 124.050781 170.90625 124.46875 171.183594 124.9375 171.378906 C 125.410156 171.574219 125.902344 171.667969 126.414062 171.667969 C 126.925781 171.667969 127.414062 171.570312 127.886719 171.371094 C 128.359375 171.175781 128.773438 170.898438 129.132812 170.535156 C 129.496094 170.175781 129.773438 169.757812 129.964844 169.285156 C 130.160156 168.8125 130.257812 168.320312 130.253906 167.808594 C 130.253906 167.300781 130.15625 166.8125 129.960938 166.34375 C 129.765625 165.875 129.488281 165.460938 129.132812 165.101562 C 128.773438 164.742188 128.359375 164.464844 127.890625 164.269531 C 127.421875 164.074219 126.933594 163.972656 126.425781 163.972656 Z M 167.117188 163.972656 C 166.605469 163.972656 166.113281 164.070312 165.640625 164.265625 C 165.171875 164.460938 164.753906 164.738281 164.394531 165.101562 C 164.03125 165.460938 163.753906 165.878906 163.558594 166.351562 C 163.363281 166.820312 163.265625 167.3125 163.265625 167.824219 C 163.269531 168.335938 163.367188 168.824219 163.5625 169.296875 C 163.757812 169.769531 164.035156 170.183594 164.398438 170.546875 C 164.757812 170.90625 165.175781 171.183594 165.648438 171.378906 C 166.121094 171.574219 166.613281 171.667969 167.121094 171.667969 C 167.632812 171.667969 168.125 171.570312 168.59375 171.371094 C 169.066406 171.175781 169.484375 170.898438 169.84375 170.535156 C 170.203125 170.175781 170.480469 169.757812 170.675781 169.285156 C 170.871094 168.8125 170.964844 168.320312 170.964844 167.808594 C 170.964844 167.300781 170.863281 166.8125 170.667969 166.339844 C 170.472656 165.871094 170.195312 165.457031 169.832031 165.09375 C 169.472656 164.734375 169.058594 164.457031 168.585938 164.265625 C 168.117188 164.070312 167.625 163.972656 167.117188 163.972656 Z M 207.824219 163.972656 C 207.3125 163.96875 206.824219 164.066406 206.351562 164.261719 C 205.878906 164.457031 205.460938 164.734375 205.097656 165.09375 C 204.738281 165.453125 204.457031 165.871094 204.261719 166.34375 C 204.066406 166.816406 203.96875 167.304688 203.964844 167.816406 C 203.964844 168.328125 204.0625 168.820312 204.257812 169.292969 C 204.453125 169.761719 204.734375 170.179688 205.09375 170.542969 C 205.457031 170.902344 205.871094 171.179688 206.34375 171.375 C 206.816406 171.570312 207.308594 171.667969 207.820312 171.667969 C 208.328125 171.667969 208.820312 171.570312 209.292969 171.375 C 209.765625 171.179688 210.179688 170.898438 210.542969 170.535156 C 210.902344 170.175781 211.179688 169.757812 211.375 169.285156 C 211.566406 168.8125 211.664062 168.320312 211.664062 167.808594 C 211.664062 167.300781 211.5625 166.8125 211.367188 166.34375 C 211.171875 165.875 210.894531 165.457031 210.535156 165.097656 C 210.175781 164.738281 209.761719 164.460938 209.292969 164.265625 C 208.824219 164.070312 208.332031 163.972656 207.824219 163.972656 Z M 248.535156 163.972656 C 248.027344 163.976562 247.539062 164.078125 247.070312 164.273438 C 246.601562 164.472656 246.1875 164.75 245.828125 165.113281 C 245.472656 165.472656 245.195312 165.890625 245.003906 166.359375 C 244.8125 166.828125 244.714844 167.320312 244.714844 167.828125 C 244.714844 168.335938 244.8125 168.824219 245.007812 169.292969 C 245.203125 169.761719 245.480469 170.179688 245.839844 170.539062 C 246.199219 170.898438 246.613281 171.175781 247.082031 171.371094 C 247.550781 171.566406 248.039062 171.667969 248.546875 171.667969 C 249.054688 171.671875 249.546875 171.574219 250.015625 171.382812 C 250.488281 171.191406 250.902344 170.917969 251.265625 170.5625 C 251.628906 170.203125 251.90625 169.792969 252.105469 169.324219 C 252.304688 168.855469 252.40625 168.367188 252.410156 167.859375 C 252.414062 167.605469 252.390625 167.351562 252.34375 167.101562 C 252.296875 166.847656 252.222656 166.605469 252.128906 166.367188 C 252.03125 166.132812 251.914062 165.90625 251.769531 165.695312 C 251.628906 165.480469 251.46875 165.285156 251.289062 165.101562 C 251.109375 164.921875 250.910156 164.761719 250.699219 164.617188 C 250.484375 164.476562 250.261719 164.355469 250.023438 164.261719 C 249.789062 164.164062 249.546875 164.089844 249.292969 164.042969 C 249.042969 163.992188 248.789062 163.96875 248.535156 163.972656 Z M 289.234375 163.972656 C 288.722656 163.972656 288.230469 164.070312 287.761719 164.265625 C 287.289062 164.460938 286.871094 164.738281 286.511719 165.101562 C 286.148438 165.460938 285.871094 165.878906 285.675781 166.351562 C 285.480469 166.820312 285.382812 167.3125 285.386719 167.824219 C 285.386719 168.335938 285.484375 168.824219 285.679688 169.296875 C 285.875 169.769531 286.152344 170.183594 286.515625 170.546875 C 286.878906 170.90625 287.292969 171.183594 287.765625 171.378906 C 288.238281 171.574219 288.730469 171.667969 289.238281 171.667969 C 289.75 171.667969 290.242188 171.570312 290.714844 171.371094 C 291.183594 171.175781 291.601562 170.898438 291.960938 170.535156 C 292.320312 170.175781 292.597656 169.757812 292.792969 169.285156 C 292.988281 168.8125 293.082031 168.320312 293.082031 167.808594 C 293.082031 167.300781 292.980469 166.8125 292.785156 166.339844 C 292.589844 165.871094 292.3125 165.457031 291.953125 165.09375 C 291.589844 164.734375 291.175781 164.457031 290.703125 164.265625 C 290.234375 164.070312 289.742188 163.972656 289.234375 163.972656 Z M 329.941406 163.972656 C 329.433594 163.972656 328.941406 164.070312 328.46875 164.265625 C 327.996094 164.460938 327.582031 164.738281 327.21875 165.101562 C 326.859375 165.460938 326.582031 165.878906 326.386719 166.351562 C 326.191406 166.820312 326.09375 167.3125 326.09375 167.824219 C 326.09375 168.335938 326.191406 168.824219 326.386719 169.296875 C 326.585938 169.769531 326.863281 170.183594 327.226562 170.546875 C 327.585938 170.90625 328.003906 171.183594 328.476562 171.378906 C 328.945312 171.574219 329.4375 171.667969 329.949219 171.667969 C 330.460938 171.667969 330.949219 171.570312 331.421875 171.371094 C 331.894531 171.175781 332.308594 170.898438 332.667969 170.535156 C 333.03125 170.175781 333.308594 169.757812 333.5 169.285156 C 333.695312 168.8125 333.792969 168.320312 333.789062 167.808594 C 333.789062 167.300781 333.691406 166.8125 333.496094 166.339844 C 333.300781 165.871094 333.019531 165.457031 332.660156 165.09375 C 332.300781 164.734375 331.882812 164.457031 331.414062 164.265625 C 330.941406 164.070312 330.453125 163.972656 329.941406 163.972656 Z M 370.652344 163.972656 C 370.140625 163.964844 369.648438 164.058594 369.175781 164.25 C 368.703125 164.441406 368.285156 164.714844 367.917969 165.070312 C 367.554688 165.429688 367.273438 165.839844 367.070312 166.3125 C 366.871094 166.78125 366.769531 167.269531 366.765625 167.78125 C 366.757812 168.292969 366.851562 168.78125 367.042969 169.257812 C 367.234375 169.730469 367.507812 170.148438 367.863281 170.511719 C 368.21875 170.878906 368.632812 171.160156 369.101562 171.359375 C 369.574219 171.558594 370.0625 171.664062 370.574219 171.667969 C 371.082031 171.671875 371.574219 171.582031 372.046875 171.390625 C 372.523438 171.199219 372.941406 170.925781 373.304688 170.570312 C 373.671875 170.210938 373.953125 169.796875 374.152344 169.328125 C 374.351562 168.859375 374.457031 168.371094 374.460938 167.859375 C 374.464844 167.347656 374.375 166.855469 374.183594 166.382812 C 373.992188 165.910156 373.71875 165.492188 373.363281 165.125 C 373.003906 164.761719 372.589844 164.480469 372.121094 164.28125 C 371.652344 164.078125 371.160156 163.976562 370.652344 163.972656 Z M 4.289062 203.34375 C 3.78125 203.339844 3.289062 203.4375 2.816406 203.628906 C 2.347656 203.824219 1.929688 204.101562 1.570312 204.460938 C 1.207031 204.816406 0.929688 205.234375 0.730469 205.703125 C 0.535156 206.171875 0.433594 206.660156 0.429688 207.171875 C 0.429688 207.679688 0.523438 208.171875 0.714844 208.644531 C 0.90625 209.113281 1.183594 209.53125 1.542969 209.894531 C 1.898438 210.257812 2.3125 210.539062 2.78125 210.734375 C 3.25 210.933594 3.742188 211.035156 4.25 211.039062 C 4.757812 211.042969 5.25 210.949219 5.722656 210.757812 C 6.195312 210.566406 6.613281 210.292969 6.976562 209.9375 C 7.339844 209.578125 7.621094 209.167969 7.820312 208.699219 C 8.019531 208.230469 8.121094 207.738281 8.128906 207.230469 C 8.128906 206.71875 8.035156 206.226562 7.839844 205.753906 C 7.648438 205.28125 7.371094 204.863281 7.011719 204.5 C 6.652344 204.136719 6.234375 203.855469 5.761719 203.660156 C 5.292969 203.460938 4.800781 203.363281 4.289062 203.363281 Z M 45 203.34375 C 44.488281 203.339844 43.996094 203.4375 43.523438 203.632812 C 43.050781 203.824219 42.636719 204.101562 42.273438 204.464844 C 41.910156 204.824219 41.632812 205.238281 41.4375 205.710938 C 41.238281 206.183594 41.140625 206.671875 41.140625 207.183594 C 41.140625 207.695312 41.234375 208.1875 41.429688 208.660156 C 41.625 209.128906 41.902344 209.546875 42.265625 209.910156 C 42.625 210.269531 43.039062 210.550781 43.511719 210.746094 C 43.984375 210.941406 44.476562 211.039062 44.984375 211.039062 C 45.496094 211.039062 45.988281 210.941406 46.460938 210.746094 C 46.929688 210.550781 47.347656 210.273438 47.707031 209.914062 C 48.070312 209.550781 48.347656 209.136719 48.542969 208.664062 C 48.738281 208.191406 48.835938 207.703125 48.835938 207.191406 C 48.835938 206.683594 48.734375 206.195312 48.539062 205.726562 C 48.34375 205.257812 48.066406 204.84375 47.707031 204.484375 C 47.347656 204.128906 46.933594 203.851562 46.464844 203.65625 C 45.996094 203.460938 45.507812 203.363281 45 203.363281 Z M 85.699219 203.34375 C 85.1875 203.34375 84.699219 203.441406 84.226562 203.632812 C 83.757812 203.828125 83.34375 204.105469 82.980469 204.464844 C 82.621094 204.824219 82.34375 205.238281 82.144531 205.710938 C 81.949219 206.179688 81.851562 206.667969 81.847656 207.179688 C 81.847656 207.6875 81.941406 208.175781 82.136719 208.648438 C 82.328125 209.121094 82.605469 209.535156 82.960938 209.898438 C 83.320312 210.261719 83.734375 210.539062 84.203125 210.738281 C 84.671875 210.933594 85.164062 211.035156 85.671875 211.039062 C 86.179688 211.042969 86.671875 210.949219 87.144531 210.757812 C 87.617188 210.566406 88.03125 210.292969 88.394531 209.933594 C 88.757812 209.578125 89.039062 209.164062 89.238281 208.695312 C 89.4375 208.226562 89.539062 207.738281 89.546875 207.230469 C 89.546875 206.71875 89.453125 206.226562 89.257812 205.75 C 89.066406 205.277344 88.789062 204.859375 88.425781 204.496094 C 88.066406 204.132812 87.648438 203.851562 87.175781 203.65625 C 86.703125 203.460938 86.210938 203.363281 85.699219 203.363281 Z M 126.40625 203.34375 C 125.894531 203.34375 125.40625 203.441406 124.933594 203.636719 C 124.460938 203.832031 124.046875 204.109375 123.683594 204.46875 C 123.324219 204.832031 123.046875 205.246094 122.851562 205.71875 C 122.65625 206.191406 122.558594 206.679688 122.558594 207.191406 C 122.558594 207.699219 122.65625 208.191406 122.851562 208.664062 C 123.046875 209.136719 123.324219 209.550781 123.683594 209.910156 C 124.046875 210.273438 124.460938 210.550781 124.933594 210.746094 C 125.40625 210.941406 125.894531 211.039062 126.40625 211.039062 C 126.917969 211.039062 127.40625 210.941406 127.878906 210.746094 C 128.351562 210.550781 128.765625 210.273438 129.128906 209.910156 C 129.488281 209.550781 129.765625 209.136719 129.960938 208.664062 C 130.15625 208.191406 130.253906 207.699219 130.253906 207.191406 C 130.253906 206.683594 130.152344 206.195312 129.957031 205.730469 C 129.761719 205.261719 129.488281 204.847656 129.128906 204.488281 C 128.769531 204.128906 128.355469 203.855469 127.886719 203.660156 C 127.421875 203.464844 126.933594 203.363281 126.425781 203.363281 Z M 167.117188 203.34375 C 166.605469 203.34375 166.113281 203.441406 165.644531 203.636719 C 165.171875 203.832031 164.753906 204.109375 164.394531 204.46875 C 164.035156 204.832031 163.753906 205.246094 163.558594 205.71875 C 163.363281 206.191406 163.265625 206.679688 163.265625 207.191406 C 163.265625 207.699219 163.363281 208.191406 163.558594 208.664062 C 163.753906 209.136719 164.035156 209.550781 164.394531 209.910156 C 164.753906 210.273438 165.171875 210.550781 165.644531 210.746094 C 166.113281 210.941406 166.605469 211.039062 167.117188 211.039062 C 167.625 211.039062 168.117188 210.941406 168.589844 210.746094 C 169.058594 210.550781 169.476562 210.273438 169.835938 209.910156 C 170.199219 209.550781 170.476562 209.136719 170.671875 208.664062 C 170.867188 208.191406 170.964844 207.699219 170.964844 207.191406 C 170.960938 206.683594 170.863281 206.191406 170.664062 205.722656 C 170.46875 205.253906 170.191406 204.839844 169.832031 204.480469 C 169.46875 204.125 169.054688 203.847656 168.585938 203.652344 C 168.113281 203.460938 167.625 203.363281 167.117188 203.363281 Z M 207.824219 203.34375 C 207.3125 203.339844 206.824219 203.4375 206.351562 203.632812 C 205.878906 203.824219 205.460938 204.101562 205.101562 204.464844 C 204.738281 204.824219 204.457031 205.238281 204.261719 205.710938 C 204.066406 206.183594 203.96875 206.671875 203.964844 207.183594 C 203.964844 207.695312 204.0625 208.1875 204.257812 208.660156 C 204.453125 209.128906 204.730469 209.546875 205.089844 209.910156 C 205.449219 210.269531 205.867188 210.550781 206.339844 210.746094 C 206.808594 210.941406 207.300781 211.039062 207.8125 211.039062 C 208.324219 211.039062 208.8125 210.941406 209.285156 210.746094 C 209.757812 210.550781 210.175781 210.273438 210.535156 209.914062 C 210.894531 209.550781 211.175781 209.136719 211.371094 208.664062 C 211.566406 208.191406 211.664062 207.703125 211.664062 207.191406 C 211.660156 206.683594 211.5625 206.195312 211.367188 205.726562 C 211.171875 205.257812 210.890625 204.84375 210.53125 204.484375 C 210.171875 204.128906 209.757812 203.851562 209.289062 203.65625 C 208.820312 203.460938 208.332031 203.363281 207.824219 203.363281 Z M 248.535156 203.34375 C 248.027344 203.347656 247.539062 203.445312 247.070312 203.644531 C 246.601562 203.84375 246.1875 204.121094 245.828125 204.480469 C 245.472656 204.84375 245.195312 205.257812 245.003906 205.730469 C 244.8125 206.199219 244.714844 206.6875 244.714844 207.199219 C 244.714844 207.707031 244.8125 208.195312 245.007812 208.664062 C 245.203125 209.132812 245.480469 209.546875 245.839844 209.910156 C 246.199219 210.269531 246.613281 210.546875 247.082031 210.742188 C 247.550781 210.9375 248.039062 211.035156 248.546875 211.039062 C 249.054688 211.042969 249.546875 210.945312 250.015625 210.753906 C 250.488281 210.5625 250.902344 210.289062 251.265625 209.933594 C 251.628906 209.574219 251.90625 209.164062 252.105469 208.695312 C 252.304688 208.226562 252.40625 207.738281 252.410156 207.230469 C 252.414062 206.976562 252.390625 206.722656 252.339844 206.472656 C 252.292969 206.222656 252.21875 205.980469 252.121094 205.746094 C 252.023438 205.507812 251.90625 205.285156 251.765625 205.074219 C 251.621094 204.863281 251.460938 204.664062 251.28125 204.484375 C 251.101562 204.304688 250.90625 204.144531 250.691406 204.003906 C 250.480469 203.863281 250.257812 203.746094 250.019531 203.648438 C 249.785156 203.550781 249.542969 203.480469 249.292969 203.429688 C 249.042969 203.382812 248.789062 203.359375 248.535156 203.363281 Z M 289.234375 203.34375 C 288.722656 203.34375 288.230469 203.441406 287.761719 203.636719 C 287.289062 203.832031 286.871094 204.109375 286.511719 204.46875 C 286.152344 204.832031 285.875 205.246094 285.679688 205.71875 C 285.484375 206.191406 285.386719 206.679688 285.386719 207.191406 C 285.386719 207.699219 285.484375 208.191406 285.679688 208.664062 C 285.875 209.136719 286.152344 209.550781 286.511719 209.910156 C 286.871094 210.273438 287.289062 210.550781 287.761719 210.746094 C 288.230469 210.941406 288.722656 211.039062 289.234375 211.039062 C 289.742188 211.039062 290.234375 210.941406 290.707031 210.746094 C 291.175781 210.550781 291.59375 210.273438 291.953125 209.910156 C 292.316406 209.550781 292.59375 209.136719 292.789062 208.664062 C 292.984375 208.191406 293.082031 207.699219 293.082031 207.191406 C 293.078125 206.683594 292.980469 206.191406 292.785156 205.722656 C 292.585938 205.253906 292.308594 204.839844 291.949219 204.480469 C 291.585938 204.125 291.171875 203.847656 290.703125 203.652344 C 290.230469 203.460938 289.742188 203.363281 289.234375 203.363281 Z M 329.941406 203.34375 C 329.433594 203.34375 328.941406 203.441406 328.46875 203.636719 C 328 203.832031 327.582031 204.109375 327.222656 204.46875 C 326.859375 204.832031 326.582031 205.246094 326.386719 205.71875 C 326.191406 206.191406 326.09375 206.679688 326.09375 207.191406 C 326.09375 207.699219 326.191406 208.191406 326.386719 208.664062 C 326.582031 209.136719 326.859375 209.550781 327.222656 209.910156 C 327.582031 210.273438 328 210.550781 328.46875 210.746094 C 328.941406 210.941406 329.433594 211.039062 329.941406 211.039062 C 330.453125 211.039062 330.945312 210.941406 331.414062 210.746094 C 331.886719 210.550781 332.304688 210.273438 332.664062 209.910156 C 333.023438 209.550781 333.300781 209.136719 333.496094 208.664062 C 333.691406 208.191406 333.789062 207.699219 333.789062 207.191406 C 333.789062 206.683594 333.6875 206.191406 333.492188 205.722656 C 333.296875 205.253906 333.015625 204.839844 332.65625 204.480469 C 332.296875 204.125 331.878906 203.847656 331.410156 203.652344 C 330.941406 203.460938 330.449219 203.363281 329.941406 203.363281 Z M 370.652344 203.34375 C 370.140625 203.335938 369.648438 203.429688 369.175781 203.621094 C 368.703125 203.8125 368.285156 204.085938 367.917969 204.441406 C 367.554688 204.800781 367.273438 205.210938 367.070312 205.683594 C 366.871094 206.152344 366.769531 206.640625 366.765625 207.152344 C 366.757812 207.660156 366.851562 208.152344 367.042969 208.625 C 367.234375 209.101562 367.507812 209.519531 367.863281 209.882812 C 368.21875 210.25 368.632812 210.53125 369.101562 210.730469 C 369.574219 210.929688 370.0625 211.035156 370.574219 211.039062 C 371.082031 211.042969 371.574219 210.953125 372.046875 210.761719 C 372.523438 210.570312 372.941406 210.296875 373.304688 209.941406 C 373.671875 209.582031 373.953125 209.167969 374.152344 208.699219 C 374.351562 208.230469 374.457031 207.742188 374.460938 207.230469 C 374.464844 206.722656 374.367188 206.230469 374.175781 205.761719 C 373.984375 205.289062 373.710938 204.871094 373.355469 204.511719 C 372.996094 204.148438 372.585938 203.867188 372.117188 203.667969 C 371.648438 203.46875 371.160156 203.367188 370.652344 203.363281 Z M 4.289062 242.761719 C 3.777344 242.761719 3.285156 242.855469 2.8125 243.050781 C 2.34375 243.246094 1.925781 243.523438 1.5625 243.882812 C 1.199219 244.246094 0.921875 244.660156 0.726562 245.132812 C 0.53125 245.605469 0.429688 246.097656 0.429688 246.605469 C 0.429688 247.117188 0.527344 247.609375 0.722656 248.082031 C 0.917969 248.554688 1.195312 248.96875 1.558594 249.332031 C 1.917969 249.691406 2.335938 249.972656 2.808594 250.167969 C 3.28125 250.363281 3.773438 250.460938 4.28125 250.460938 C 4.792969 250.457031 5.285156 250.359375 5.757812 250.164062 C 6.230469 249.96875 6.644531 249.6875 7.003906 249.328125 C 7.367188 248.964844 7.644531 248.546875 7.839844 248.074219 C 8.03125 247.601562 8.128906 247.113281 8.128906 246.601562 C 8.125 246.09375 8.027344 245.601562 7.832031 245.132812 C 7.636719 244.664062 7.359375 244.25 7 243.890625 C 6.640625 243.53125 6.226562 243.253906 5.757812 243.058594 C 5.289062 242.863281 4.796875 242.761719 4.289062 242.761719 Z M 45 242.761719 C 44.488281 242.761719 43.996094 242.855469 43.523438 243.050781 C 43.050781 243.246094 42.632812 243.523438 42.273438 243.882812 C 41.910156 244.246094 41.632812 244.660156 41.433594 245.132812 C 41.238281 245.605469 41.140625 246.097656 41.140625 246.605469 C 41.140625 247.117188 41.238281 247.609375 41.433594 248.082031 C 41.628906 248.554688 41.90625 248.96875 42.265625 249.332031 C 42.628906 249.691406 43.046875 249.972656 43.515625 250.167969 C 43.988281 250.363281 44.480469 250.460938 44.992188 250.460938 C 45.503906 250.457031 45.996094 250.359375 46.464844 250.164062 C 46.9375 249.96875 47.355469 249.6875 47.714844 249.328125 C 48.074219 248.964844 48.351562 248.546875 48.546875 248.074219 C 48.742188 247.601562 48.839844 247.113281 48.835938 246.601562 C 48.835938 246.09375 48.738281 245.601562 48.542969 245.132812 C 48.347656 244.664062 48.070312 244.25 47.710938 243.890625 C 47.351562 243.53125 46.9375 243.253906 46.464844 243.058594 C 45.996094 242.863281 45.507812 242.761719 45 242.761719 Z M 85.699219 242.761719 C 85.1875 242.761719 84.695312 242.859375 84.222656 243.054688 C 83.753906 243.25 83.335938 243.527344 82.976562 243.890625 C 82.613281 244.25 82.335938 244.667969 82.140625 245.140625 C 81.945312 245.613281 81.847656 246.101562 81.847656 246.613281 C 81.851562 247.125 81.949219 247.617188 82.144531 248.085938 C 82.339844 248.558594 82.617188 248.976562 82.980469 249.335938 C 83.339844 249.695312 83.757812 249.972656 84.230469 250.167969 C 84.703125 250.363281 85.195312 250.460938 85.703125 250.460938 C 86.214844 250.457031 86.707031 250.359375 87.175781 250.164062 C 87.648438 249.96875 88.066406 249.6875 88.425781 249.324219 C 88.785156 248.964844 89.0625 248.546875 89.257812 248.074219 C 89.449219 247.601562 89.546875 247.109375 89.546875 246.601562 C 89.542969 246.089844 89.445312 245.601562 89.25 245.132812 C 89.054688 244.660156 88.777344 244.246094 88.414062 243.886719 C 88.054688 243.527344 87.640625 243.25 87.167969 243.054688 C 86.699219 242.859375 86.207031 242.761719 85.699219 242.761719 Z M 126.40625 242.761719 C 125.894531 242.761719 125.40625 242.859375 124.933594 243.054688 C 124.460938 243.25 124.046875 243.527344 123.683594 243.890625 C 123.324219 244.25 123.046875 244.667969 122.851562 245.140625 C 122.65625 245.613281 122.558594 246.101562 122.558594 246.613281 C 122.558594 247.125 122.65625 247.617188 122.851562 248.085938 C 123.046875 248.558594 123.328125 248.976562 123.6875 249.335938 C 124.050781 249.695312 124.46875 249.972656 124.9375 250.167969 C 125.410156 250.363281 125.902344 250.460938 126.414062 250.460938 C 126.925781 250.457031 127.414062 250.359375 127.886719 250.164062 C 128.359375 249.96875 128.773438 249.6875 129.132812 249.324219 C 129.496094 248.964844 129.773438 248.546875 129.964844 248.074219 C 130.160156 247.601562 130.257812 247.109375 130.253906 246.601562 C 130.253906 246.09375 130.15625 245.605469 129.960938 245.136719 C 129.765625 244.667969 129.488281 244.253906 129.132812 243.894531 C 128.773438 243.535156 128.359375 243.253906 127.890625 243.058594 C 127.421875 242.863281 126.933594 242.765625 126.425781 242.761719 Z M 167.117188 242.761719 C 166.605469 242.761719 166.113281 242.859375 165.640625 243.054688 C 165.171875 243.25 164.753906 243.527344 164.394531 243.890625 C 164.03125 244.25 163.753906 244.667969 163.558594 245.140625 C 163.363281 245.613281 163.265625 246.101562 163.265625 246.613281 C 163.269531 247.125 163.367188 247.617188 163.5625 248.085938 C 163.757812 248.558594 164.035156 248.976562 164.398438 249.335938 C 164.757812 249.695312 165.175781 249.972656 165.648438 250.167969 C 166.121094 250.363281 166.613281 250.460938 167.121094 250.460938 C 167.632812 250.457031 168.125 250.359375 168.59375 250.164062 C 169.066406 249.96875 169.484375 249.6875 169.84375 249.324219 C 170.203125 248.964844 170.480469 248.546875 170.675781 248.074219 C 170.871094 247.601562 170.964844 247.109375 170.964844 246.601562 C 170.964844 246.089844 170.863281 245.601562 170.667969 245.132812 C 170.472656 244.660156 170.195312 244.246094 169.832031 243.886719 C 169.472656 243.527344 169.058594 243.25 168.585938 243.054688 C 168.117188 242.859375 167.625 242.761719 167.117188 242.761719 Z M 207.824219 242.761719 C 207.3125 242.761719 206.824219 242.855469 206.351562 243.050781 C 205.878906 243.246094 205.460938 243.523438 205.097656 243.882812 C 204.738281 244.246094 204.457031 244.660156 204.261719 245.132812 C 204.066406 245.605469 203.96875 246.097656 203.964844 246.605469 C 203.964844 247.117188 204.0625 247.609375 204.257812 248.082031 C 204.453125 248.554688 204.734375 248.96875 205.09375 249.332031 C 205.457031 249.691406 205.871094 249.972656 206.34375 250.167969 C 206.816406 250.363281 207.308594 250.460938 207.820312 250.460938 C 208.328125 250.457031 208.820312 250.359375 209.292969 250.164062 C 209.765625 249.96875 210.179688 249.6875 210.542969 249.328125 C 210.902344 248.964844 211.179688 248.546875 211.375 248.074219 C 211.566406 247.601562 211.664062 247.113281 211.664062 246.601562 C 211.664062 246.09375 211.5625 245.601562 211.367188 245.132812 C 211.171875 244.664062 210.894531 244.25 210.535156 243.890625 C 210.175781 243.53125 209.761719 243.253906 209.292969 243.058594 C 208.824219 242.863281 208.332031 242.761719 207.824219 242.761719 Z M 248.535156 242.761719 C 248.023438 242.765625 247.535156 242.867188 247.066406 243.066406 C 246.59375 243.265625 246.183594 243.542969 245.824219 243.90625 C 245.464844 244.269531 245.191406 244.6875 245 245.160156 C 244.808594 245.632812 244.710938 246.125 244.714844 246.632812 C 244.71875 247.144531 244.820312 247.632812 245.015625 248.101562 C 245.214844 248.574219 245.492188 248.988281 245.855469 249.34375 C 246.21875 249.703125 246.636719 249.980469 247.109375 250.171875 C 247.578125 250.367188 248.070312 250.460938 248.578125 250.457031 C 249.089844 250.457031 249.578125 250.355469 250.050781 250.160156 C 250.519531 249.964844 250.933594 249.683594 251.292969 249.324219 C 251.652344 248.960938 251.929688 248.542969 252.125 248.074219 C 252.316406 247.601562 252.414062 247.109375 252.410156 246.601562 C 252.410156 246.089844 252.3125 245.597656 252.113281 245.125 C 251.914062 244.652344 251.636719 244.234375 251.269531 243.875 C 250.90625 243.515625 250.488281 243.238281 250.011719 243.046875 C 249.539062 242.851562 249.046875 242.757812 248.535156 242.761719 Z M 289.234375 242.761719 C 288.722656 242.761719 288.230469 242.859375 287.761719 243.054688 C 287.289062 243.25 286.871094 243.527344 286.511719 243.890625 C 286.148438 244.25 285.871094 244.667969 285.675781 245.140625 C 285.480469 245.613281 285.382812 246.101562 285.386719 246.613281 C 285.386719 247.125 285.484375 247.617188 285.679688 248.085938 C 285.875 248.558594 286.152344 248.976562 286.515625 249.335938 C 286.878906 249.695312 287.292969 249.972656 287.765625 250.167969 C 288.238281 250.363281 288.730469 250.460938 289.238281 250.460938 C 289.75 250.457031 290.242188 250.359375 290.714844 250.164062 C 291.183594 249.96875 291.601562 249.6875 291.960938 249.324219 C 292.320312 248.964844 292.597656 248.546875 292.792969 248.074219 C 292.988281 247.601562 293.082031 247.109375 293.082031 246.601562 C 293.082031 246.089844 292.980469 245.601562 292.785156 245.132812 C 292.589844 244.660156 292.3125 244.246094 291.953125 243.886719 C 291.589844 243.527344 291.175781 243.25 290.703125 243.054688 C 290.234375 242.859375 289.742188 242.761719 289.234375 242.761719 Z M 329.941406 242.761719 C 329.433594 242.761719 328.941406 242.859375 328.46875 243.054688 C 327.996094 243.25 327.582031 243.527344 327.21875 243.890625 C 326.859375 244.25 326.582031 244.667969 326.386719 245.140625 C 326.191406 245.613281 326.09375 246.101562 326.09375 246.613281 C 326.09375 247.125 326.191406 247.617188 326.386719 248.085938 C 326.585938 248.558594 326.863281 248.976562 327.226562 249.335938 C 327.585938 249.695312 328.003906 249.972656 328.476562 250.167969 C 328.945312 250.363281 329.4375 250.460938 329.949219 250.460938 C 330.460938 250.457031 330.949219 250.359375 331.421875 250.164062 C 331.894531 249.96875 332.308594 249.6875 332.667969 249.324219 C 333.03125 248.964844 333.308594 248.546875 333.5 248.074219 C 333.695312 247.601562 333.792969 247.109375 333.789062 246.601562 C 333.789062 246.089844 333.691406 245.601562 333.496094 245.132812 C 333.300781 244.660156 333.019531 244.246094 332.660156 243.886719 C 332.300781 243.527344 331.882812 243.25 331.414062 243.054688 C 330.941406 242.859375 330.453125 242.761719 329.941406 242.761719 Z M 370.652344 242.761719 C 370.140625 242.757812 369.648438 242.851562 369.171875 243.042969 C 368.699219 243.234375 368.277344 243.507812 367.914062 243.867188 C 367.546875 244.226562 367.265625 244.640625 367.066406 245.113281 C 366.867188 245.585938 366.765625 246.074219 366.765625 246.585938 C 366.761719 247.097656 366.855469 247.59375 367.050781 248.066406 C 367.242188 248.539062 367.519531 248.957031 367.878906 249.320312 C 368.242188 249.683594 368.65625 249.964844 369.128906 250.160156 C 369.601562 250.359375 370.09375 250.457031 370.605469 250.457031 C 371.117188 250.460938 371.609375 250.363281 372.082031 250.167969 C 372.554688 249.972656 372.972656 249.691406 373.335938 249.332031 C 373.695312 248.96875 373.976562 248.550781 374.167969 248.078125 C 374.363281 247.605469 374.460938 247.113281 374.460938 246.601562 C 374.460938 246.09375 374.363281 245.609375 374.167969 245.140625 C 373.976562 244.671875 373.699219 244.257812 373.34375 243.898438 C 372.988281 243.539062 372.574219 243.261719 372.109375 243.066406 C 371.644531 242.867188 371.15625 242.765625 370.652344 242.761719 Z M 4.289062 282.132812 C 3.777344 282.132812 3.285156 282.226562 2.8125 282.421875 C 2.34375 282.617188 1.925781 282.894531 1.5625 283.253906 C 1.199219 283.617188 0.921875 284.03125 0.726562 284.503906 C 0.53125 284.976562 0.429688 285.46875 0.429688 285.976562 C 0.429688 286.488281 0.527344 286.980469 0.722656 287.453125 C 0.917969 287.925781 1.195312 288.339844 1.558594 288.703125 C 1.917969 289.0625 2.335938 289.34375 2.808594 289.539062 C 3.28125 289.734375 3.773438 289.828125 4.28125 289.828125 C 4.792969 289.828125 5.285156 289.730469 5.757812 289.535156 C 6.230469 289.339844 6.644531 289.058594 7.003906 288.699219 C 7.367188 288.335938 7.644531 287.917969 7.839844 287.445312 C 8.03125 286.972656 8.128906 286.480469 8.128906 285.972656 C 8.125 285.464844 8.023438 284.976562 7.828125 284.511719 C 7.632812 284.042969 7.351562 283.628906 6.992188 283.273438 C 6.632812 282.914062 6.21875 282.640625 5.753906 282.445312 C 5.285156 282.25 4.796875 282.152344 4.289062 282.152344 Z M 45 282.132812 C 44.488281 282.132812 43.996094 282.226562 43.523438 282.421875 C 43.050781 282.617188 42.636719 282.894531 42.273438 283.253906 C 41.910156 283.613281 41.632812 284.03125 41.4375 284.5 C 41.238281 284.972656 41.140625 285.464844 41.140625 285.972656 C 41.140625 286.484375 41.234375 286.976562 41.429688 287.449219 C 41.625 287.921875 41.902344 288.335938 42.265625 288.699219 C 42.625 289.058594 43.039062 289.339844 43.511719 289.535156 C 43.984375 289.730469 44.476562 289.828125 44.984375 289.828125 C 45.496094 289.828125 45.988281 289.734375 46.460938 289.539062 C 46.929688 289.34375 47.347656 289.0625 47.707031 288.703125 C 48.070312 288.34375 48.347656 287.925781 48.542969 287.453125 C 48.738281 286.984375 48.835938 286.492188 48.835938 285.980469 C 48.835938 285.472656 48.734375 284.984375 48.539062 284.515625 C 48.34375 284.046875 48.066406 283.632812 47.707031 283.277344 C 47.347656 282.917969 46.933594 282.640625 46.464844 282.445312 C 45.996094 282.25 45.507812 282.152344 45 282.152344 Z M 85.699219 282.132812 C 85.1875 282.132812 84.695312 282.230469 84.222656 282.425781 C 83.753906 282.621094 83.335938 282.898438 82.976562 283.261719 C 82.613281 283.621094 82.335938 284.039062 82.140625 284.511719 C 81.945312 284.984375 81.847656 285.472656 81.847656 285.984375 C 81.851562 286.496094 81.949219 286.984375 82.144531 287.457031 C 82.339844 287.929688 82.617188 288.34375 82.980469 288.707031 C 83.339844 289.066406 83.757812 289.34375 84.230469 289.539062 C 84.703125 289.734375 85.195312 289.832031 85.703125 289.828125 C 86.214844 289.828125 86.707031 289.730469 87.175781 289.535156 C 87.648438 289.335938 88.066406 289.058594 88.425781 288.695312 C 88.785156 288.335938 89.0625 287.917969 89.257812 287.445312 C 89.449219 286.972656 89.546875 286.480469 89.546875 285.972656 C 89.542969 285.464844 89.441406 284.976562 89.246094 284.507812 C 89.046875 284.039062 88.769531 283.625 88.410156 283.269531 C 88.046875 282.910156 87.632812 282.636719 87.164062 282.441406 C 86.695312 282.25 86.207031 282.152344 85.699219 282.152344 Z M 126.40625 282.132812 C 125.894531 282.132812 125.40625 282.230469 124.933594 282.425781 C 124.460938 282.621094 124.046875 282.898438 123.683594 283.257812 C 123.324219 283.621094 123.046875 284.035156 122.851562 284.507812 C 122.65625 284.980469 122.558594 285.46875 122.558594 285.980469 C 122.558594 286.492188 122.65625 286.980469 122.851562 287.453125 C 123.046875 287.925781 123.324219 288.339844 123.683594 288.703125 C 124.046875 289.0625 124.460938 289.339844 124.933594 289.535156 C 125.40625 289.730469 125.894531 289.828125 126.40625 289.828125 C 126.917969 289.828125 127.40625 289.730469 127.878906 289.535156 C 128.351562 289.339844 128.765625 289.0625 129.128906 288.703125 C 129.488281 288.339844 129.765625 287.925781 129.960938 287.453125 C 130.15625 286.980469 130.253906 286.492188 130.253906 285.980469 C 130.253906 285.472656 130.152344 284.988281 129.957031 284.519531 C 129.761719 284.050781 129.488281 283.636719 129.128906 283.28125 C 128.769531 282.921875 128.355469 282.644531 127.890625 282.449219 C 127.421875 282.253906 126.933594 282.15625 126.425781 282.152344 Z M 167.117188 282.132812 C 166.605469 282.132812 166.113281 282.230469 165.644531 282.425781 C 165.171875 282.621094 164.753906 282.898438 164.394531 283.257812 C 164.035156 283.621094 163.753906 284.035156 163.558594 284.507812 C 163.363281 284.980469 163.265625 285.46875 163.265625 285.980469 C 163.265625 286.492188 163.363281 286.980469 163.558594 287.453125 C 163.753906 287.925781 164.035156 288.339844 164.394531 288.703125 C 164.753906 289.0625 165.171875 289.339844 165.644531 289.535156 C 166.113281 289.730469 166.605469 289.828125 167.117188 289.828125 C 167.625 289.828125 168.117188 289.730469 168.589844 289.535156 C 169.058594 289.339844 169.476562 289.0625 169.835938 288.703125 C 170.199219 288.339844 170.476562 287.925781 170.671875 287.453125 C 170.867188 286.980469 170.964844 286.492188 170.964844 285.980469 C 170.960938 285.472656 170.863281 284.984375 170.664062 284.515625 C 170.46875 284.046875 170.191406 283.632812 169.832031 283.273438 C 169.46875 282.914062 169.054688 282.636719 168.585938 282.441406 C 168.113281 282.25 167.625 282.152344 167.117188 282.152344 Z M 207.824219 282.132812 C 207.3125 282.132812 206.824219 282.226562 206.351562 282.421875 C 205.878906 282.617188 205.460938 282.894531 205.101562 283.253906 C 204.738281 283.613281 204.457031 284.03125 204.261719 284.5 C 204.066406 284.972656 203.96875 285.464844 203.964844 285.972656 C 203.964844 286.484375 204.0625 286.976562 204.257812 287.449219 C 204.453125 287.921875 204.730469 288.335938 205.089844 288.699219 C 205.449219 289.058594 205.867188 289.339844 206.339844 289.535156 C 206.808594 289.730469 207.300781 289.828125 207.8125 289.828125 C 208.324219 289.828125 208.8125 289.734375 209.285156 289.539062 C 209.757812 289.34375 210.175781 289.0625 210.535156 288.703125 C 210.894531 288.34375 211.175781 287.925781 211.371094 287.453125 C 211.566406 286.984375 211.664062 286.492188 211.664062 285.980469 C 211.660156 285.472656 211.5625 284.984375 211.367188 284.515625 C 211.171875 284.046875 210.890625 283.632812 210.53125 283.277344 C 210.171875 282.917969 209.757812 282.640625 209.289062 282.445312 C 208.820312 282.25 208.332031 282.152344 207.824219 282.152344 Z M 248.535156 282.132812 C 248.023438 282.136719 247.535156 282.238281 247.066406 282.4375 C 246.59375 282.632812 246.183594 282.914062 245.824219 283.277344 C 245.464844 283.640625 245.191406 284.058594 245 284.53125 C 244.808594 285.003906 244.710938 285.492188 244.714844 286.003906 C 244.71875 286.511719 244.820312 287.003906 245.015625 287.472656 C 245.214844 287.941406 245.492188 288.359375 245.855469 288.714844 C 246.21875 289.074219 246.636719 289.351562 247.109375 289.542969 C 247.578125 289.734375 248.070312 289.832031 248.578125 289.828125 C 249.089844 289.828125 249.578125 289.726562 250.050781 289.53125 C 250.519531 289.332031 250.933594 289.054688 251.292969 288.691406 C 251.652344 288.332031 251.929688 287.914062 252.125 287.441406 C 252.316406 286.972656 252.414062 286.480469 252.410156 285.972656 C 252.410156 285.460938 252.308594 284.96875 252.109375 284.5 C 251.910156 284.03125 251.628906 283.617188 251.265625 283.257812 C 250.902344 282.902344 250.480469 282.625 250.007812 282.433594 C 249.535156 282.242188 249.042969 282.148438 248.535156 282.152344 Z M 289.234375 282.132812 C 288.722656 282.132812 288.230469 282.230469 287.761719 282.425781 C 287.289062 282.621094 286.871094 282.898438 286.511719 283.257812 C 286.152344 283.621094 285.875 284.035156 285.679688 284.507812 C 285.484375 284.980469 285.386719 285.46875 285.386719 285.980469 C 285.386719 286.492188 285.484375 286.980469 285.679688 287.453125 C 285.875 287.925781 286.152344 288.339844 286.511719 288.703125 C 286.871094 289.0625 287.289062 289.339844 287.761719 289.535156 C 288.230469 289.730469 288.722656 289.828125 289.234375 289.828125 C 289.742188 289.828125 290.234375 289.730469 290.707031 289.535156 C 291.175781 289.339844 291.59375 289.0625 291.953125 288.703125 C 292.316406 288.339844 292.59375 287.925781 292.789062 287.453125 C 292.984375 286.980469 293.082031 286.492188 293.082031 285.980469 C 293.078125 285.472656 292.980469 284.984375 292.785156 284.515625 C 292.585938 284.046875 292.308594 283.632812 291.949219 283.273438 C 291.585938 282.914062 291.171875 282.636719 290.703125 282.441406 C 290.230469 282.25 289.742188 282.152344 289.234375 282.152344 Z M 329.941406 282.132812 C 329.433594 282.132812 328.941406 282.230469 328.46875 282.425781 C 328 282.621094 327.582031 282.898438 327.222656 283.257812 C 326.859375 283.621094 326.582031 284.035156 326.386719 284.507812 C 326.191406 284.980469 326.09375 285.46875 326.09375 285.980469 C 326.09375 286.492188 326.191406 286.980469 326.386719 287.453125 C 326.582031 287.925781 326.859375 288.339844 327.222656 288.703125 C 327.582031 289.0625 328 289.339844 328.46875 289.535156 C 328.941406 289.730469 329.433594 289.828125 329.941406 289.828125 C 330.453125 289.828125 330.945312 289.730469 331.414062 289.535156 C 331.886719 289.339844 332.304688 289.0625 332.664062 288.703125 C 333.023438 288.339844 333.300781 287.925781 333.496094 287.453125 C 333.691406 286.980469 333.789062 286.492188 333.789062 285.980469 C 333.789062 285.472656 333.6875 284.984375 333.492188 284.515625 C 333.296875 284.046875 333.015625 283.632812 332.65625 283.273438 C 332.296875 282.914062 331.878906 282.636719 331.410156 282.441406 C 330.941406 282.25 330.449219 282.152344 329.941406 282.152344 Z M 370.652344 282.132812 C 370.140625 282.128906 369.648438 282.21875 369.171875 282.410156 C 368.699219 282.601562 368.277344 282.878906 367.914062 283.238281 C 367.546875 283.597656 367.265625 284.011719 367.066406 284.484375 C 366.867188 284.953125 366.765625 285.445312 366.765625 285.957031 C 366.761719 286.46875 366.855469 286.960938 367.050781 287.4375 C 367.242188 287.910156 367.519531 288.328125 367.878906 288.691406 C 368.242188 289.054688 368.65625 289.335938 369.128906 289.53125 C 369.601562 289.730469 370.09375 289.828125 370.605469 289.828125 C 371.117188 289.832031 371.609375 289.734375 372.082031 289.539062 C 372.554688 289.34375 372.972656 289.0625 373.335938 288.699219 C 373.695312 288.339844 373.976562 287.921875 374.167969 287.449219 C 374.363281 286.976562 374.460938 286.484375 374.460938 285.972656 C 374.457031 285.46875 374.359375 284.980469 374.164062 284.515625 C 373.96875 284.050781 373.691406 283.640625 373.335938 283.28125 C 372.980469 282.925781 372.570312 282.648438 372.105469 282.453125 C 371.640625 282.257812 371.15625 282.15625 370.652344 282.152344 Z M 370.652344 282.132812 " fill-opacity="1" fill-rule="nonzero"/></svg>