<svg xmlns="http://www.w3.org/2000/svg" xmlns:xlink="http://www.w3.org/1999/xlink" width="500" zoomAndPan="magnify" viewBox="0 0 375 374.999991" height="500" preserveAspectRatio="xMidYMid meet" version="1.0"><defs><filter x="0%" y="0%" width="100%" height="100%" id="b2854bc46f"><feColorMatrix values="0 0 0 0 1 0 0 0 0 1 0 0 0 0 1 0 0 0 1 0" color-interpolation-filters="sRGB"/></filter><mask id="2ead75c139"><g filter="url(#b2854bc46f)"><rect x="-37.5" width="450" fill="#000000" y="-37.499999" height="449.999989" fill-opacity="0.2"/></g></mask><clipPath id="e912aec561"><path d="M 0 0.519531 L 375 0.519531 L 375 268.703125 L 0 268.703125 Z M 0 0.519531 " clip-rule="nonzero"/></clipPath><clipPath id="1b85d104e8"><rect x="0" width="375" y="0" height="269"/></clipPath></defs><g mask="url(#2ead75c139)"><g transform="matrix(1, 0, 0, 1, 0, 53)"><g clip-path="url(#1b85d104e8)"><g clip-path="url(#e912aec561)"><path fill="#094b70" d="M 181.625 268.804688 C 180.714844 268.804688 179.8125 268.785156 178.914062 268.742188 C 172.179688 268.429688 165.511719 266.828125 159.625 264.109375 C 153.261719 261.175781 148.042969 257.105469 144.097656 252.023438 C 139.542969 246.152344 136.601562 238.960938 135.097656 230.039062 C 133.769531 222.148438 133.660156 213.664062 133.5625 205.460938 C 133.46875 197.914062 133.371094 190.109375 132.324219 182.78125 C 128.789062 158.03125 112.394531 136.449219 91.210938 127.550781 C 89.601562 134.621094 87.269531 141.441406 84.207031 148.011719 C 75.828125 165.867188 62.988281 178.988281 47.085938 185.96875 C 43.199219 187.667969 38.28125 189.242188 33.351562 189.246094 C 30.164062 189.246094 26.972656 188.589844 24.050781 186.890625 C 19.675781 184.355469 16.734375 179.933594 15.542969 174.113281 C 14.511719 169.082031 14.859375 163.363281 16.519531 158.015625 C 18.53125 151.535156 21.960938 145.566406 26.714844 140.285156 C 31.230469 135.265625 36.726562 131.082031 43.050781 127.847656 C 55.761719 121.339844 70.539062 119.5 83.589844 122.777344 C 85.644531 123.292969 87.660156 123.914062 89.644531 124.648438 C 91.753906 114.238281 92.292969 103.714844 91.429688 94.039062 C 89.199219 68.984375 79.390625 46.089844 63.808594 29.570312 C 46.828125 11.554688 23.019531 1.644531 0.128906 3.046875 L 0 0.929688 C 11.738281 0.210938 24.035156 2.421875 35.554688 7.320312 C 41.179688 9.730469 46.5 12.6875 51.519531 16.1875 C 56.539062 19.691406 61.148438 23.664062 65.351562 28.113281 C 81.257812 44.976562 91.269531 68.320312 93.542969 93.847656 C 94.472656 104.46875 93.851562 115 91.671875 125.4375 C 95.421875 126.980469 98.988281 128.875 102.371094 131.109375 C 108.148438 134.949219 113.246094 139.542969 117.660156 144.890625 C 126.539062 155.585938 132.496094 168.9375 134.425781 182.480469 C 135.488281 189.941406 135.585938 197.816406 135.683594 205.433594 C 135.890625 222.304688 136.089844 238.238281 145.773438 250.722656 C 153.007812 260.054688 165.433594 265.996094 179.011719 266.625 C 190.34375 267.152344 202.800781 264.230469 216.046875 257.953125 C 229.085938 251.769531 238.777344 244.179688 244.949219 235.328125 C 244.078125 235.191406 243.210938 235.050781 242.34375 234.902344 C 234.566406 233.566406 223.25 230.964844 214.8125 223.863281 C 210.882812 220.550781 207.742188 216.144531 205.980469 211.453125 C 204.0625 206.335938 203.832031 201.167969 205.324219 196.511719 C 207.371094 190.132812 212.761719 185.277344 220.121094 183.1875 C 224.246094 182.023438 228.421875 181.816406 232.644531 182.566406 C 237 183.347656 240.941406 185.164062 244.039062 187.8125 C 249.554688 192.542969 253.164062 199.601562 254.183594 207.6875 C 254.65625 211.554688 254.570312 215.40625 253.929688 219.25 C 253.285156 223.089844 252.109375 226.761719 250.402344 230.261719 C 249.832031 231.425781 249.210938 232.570312 248.535156 233.695312 C 291.625 239.351562 335.484375 226.058594 374.382812 214.265625 L 374.996094 216.292969 C 356.003906 222.050781 332.363281 229.214844 309.273438 233.355469 C 286.296875 237.476562 265.957031 238.238281 247.285156 235.667969 C 240.929688 245.203125 230.757812 253.324219 216.957031 259.867188 C 204.4375 265.804688 192.5625 268.804688 181.625 268.804688 Z M 227.703125 184.261719 C 225.324219 184.261719 222.988281 184.582031 220.699219 185.230469 C 214.035156 187.121094 209.171875 191.46875 207.34375 197.160156 C 204.722656 205.339844 208.355469 215.652344 216.179688 222.238281 C 224.226562 229.011719 235.171875 231.515625 242.703125 232.8125 C 243.878906 233.015625 245.058594 233.203125 246.238281 233.378906 C 247.0625 232.066406 247.816406 230.714844 248.503906 229.328125 C 254.359375 217.421875 254.300781 199.390625 242.660156 189.425781 C 238.742188 186.070312 233.296875 184.261719 227.703125 184.261719 Z M 70.394531 123.285156 C 47.480469 123.285156 25.015625 137.785156 18.546875 158.644531 C 15.59375 168.164062 16.902344 180.292969 25.113281 185.058594 C 31.792969 188.933594 40.285156 186.636719 46.230469 184.027344 C 70.242188 173.496094 83.875 150.582031 89.199219 126.75 C 87.195312 125.992188 85.152344 125.351562 83.074219 124.832031 C 78.914062 123.792969 74.6875 123.277344 70.394531 123.285156 Z M 70.394531 123.285156 " fill-opacity="1" fill-rule="nonzero"/></g></g></g></g></svg>