<svg xmlns="http://www.w3.org/2000/svg" xmlns:xlink="http://www.w3.org/1999/xlink" width="500" zoomAndPan="magnify" viewBox="0 0 375 374.999991" height="500" preserveAspectRatio="xMidYMid meet" version="1.0"><defs><filter x="0%" y="0%" width="100%" height="100%" id="c020fa0009"><feColorMatrix values="0 0 0 0 1 0 0 0 0 1 0 0 0 0 1 0 0 0 1 0" color-interpolation-filters="sRGB"/></filter><mask id="5652a3bb8c"><g filter="url(#c020fa0009)"><rect x="-37.5" width="450" fill="#000000" y="-37.499999" height="449.999989" fill-opacity="0.65"/></g></mask><clipPath id="56fa885bdb"><path d="M 291 1.363281 L 375 1.363281 L 375 133.363281 L 291 133.363281 Z M 291 1.363281 " clip-rule="nonzero"/></clipPath><clipPath id="a743f43041"><path d="M 194 1.363281 L 278 1.363281 L 278 133.363281 L 194 133.363281 Z M 194 1.363281 " clip-rule="nonzero"/></clipPath><clipPath id="2510f43e00"><path d="M 97 1.363281 L 181 1.363281 L 181 133.363281 L 97 133.363281 Z M 97 1.363281 " clip-rule="nonzero"/></clipPath><clipPath id="258e8c45c1"><path d="M 0.238281 1.363281 L 84 1.363281 L 84 133.363281 L 0.238281 133.363281 Z M 0.238281 1.363281 " clip-rule="nonzero"/></clipPath><clipPath id="b885c7b826"><rect x="0" width="375" y="0" height="134"/></clipPath></defs><g mask="url(#5652a3bb8c)"><g transform="matrix(1, 0, 0, 1, 0, 120)"><g clip-path="url(#b885c7b826)"><g clip-path="url(#56fa885bdb)"><path fill="#c2cc00" d="M 291.617188 17.808594 C 291.496094 17.929688 291.402344 18.066406 291.335938 18.222656 C 291.273438 18.378906 291.238281 18.539062 291.238281 18.710938 C 291.238281 18.878906 291.273438 19.042969 291.335938 19.199219 C 291.402344 19.351562 291.496094 19.492188 291.617188 19.609375 L 339.488281 67.484375 L 291.617188 115.355469 C 291.363281 115.601562 291.238281 115.902344 291.242188 116.257812 C 291.242188 116.609375 291.367188 116.910156 291.617188 117.15625 L 307.679688 133.21875 C 307.796875 133.339844 307.933594 133.433594 308.089844 133.496094 C 308.246094 133.5625 308.410156 133.59375 308.578125 133.59375 C 308.746094 133.59375 308.910156 133.5625 309.066406 133.496094 C 309.222656 133.433594 309.359375 133.339844 309.476562 133.21875 L 374.324219 68.382812 C 374.441406 68.265625 374.535156 68.125 374.601562 67.96875 C 374.667969 67.816406 374.699219 67.652344 374.699219 67.484375 C 374.699219 67.3125 374.667969 67.152344 374.601562 66.996094 C 374.535156 66.839844 374.441406 66.703125 374.324219 66.582031 L 309.476562 1.738281 C 309.359375 1.617188 309.222656 1.527344 309.066406 1.460938 C 308.910156 1.394531 308.746094 1.363281 308.578125 1.363281 C 308.410156 1.363281 308.246094 1.394531 308.089844 1.460938 C 307.933594 1.527344 307.796875 1.617188 307.679688 1.738281 Z M 371.621094 67.484375 L 308.578125 130.519531 L 294.316406 116.257812 L 342.1875 68.382812 C 342.433594 68.132812 342.558594 67.832031 342.5625 67.484375 C 342.5625 67.132812 342.4375 66.832031 342.1875 66.582031 L 294.316406 18.710938 L 308.578125 4.4375 Z M 371.621094 67.484375 " fill-opacity="1" fill-rule="nonzero"/></g><g clip-path="url(#a743f43041)"><path fill="#c2cc00" d="M 277.386719 68.382812 C 277.503906 68.261719 277.597656 68.125 277.660156 67.96875 C 277.722656 67.8125 277.757812 67.652344 277.757812 67.484375 C 277.757812 67.316406 277.722656 67.152344 277.660156 66.996094 C 277.597656 66.839844 277.503906 66.703125 277.386719 66.582031 L 212.542969 1.738281 C 212.425781 1.617188 212.285156 1.527344 212.128906 1.460938 C 211.976562 1.394531 211.8125 1.363281 211.644531 1.363281 C 211.472656 1.363281 211.3125 1.394531 211.15625 1.460938 C 211 1.527344 210.863281 1.617188 210.742188 1.738281 L 194.671875 17.808594 C 194.554688 17.929688 194.464844 18.066406 194.398438 18.222656 C 194.335938 18.378906 194.304688 18.542969 194.304688 18.710938 C 194.304688 18.878906 194.335938 19.039062 194.398438 19.195312 C 194.464844 19.351562 194.554688 19.488281 194.671875 19.609375 L 242.546875 67.484375 L 194.671875 115.355469 C 194.421875 115.605469 194.296875 115.90625 194.296875 116.257812 C 194.300781 116.605469 194.425781 116.90625 194.671875 117.15625 L 210.742188 133.21875 C 210.863281 133.339844 211 133.433594 211.15625 133.496094 C 211.3125 133.5625 211.472656 133.59375 211.644531 133.59375 C 211.8125 133.59375 211.976562 133.5625 212.128906 133.496094 C 212.285156 133.433594 212.425781 133.339844 212.542969 133.21875 Z M 197.371094 116.257812 L 245.246094 68.382812 C 245.496094 68.136719 245.621094 67.835938 245.617188 67.484375 C 245.625 67.128906 245.5 66.828125 245.246094 66.582031 L 197.371094 18.710938 L 211.644531 4.4375 L 274.679688 67.484375 L 211.644531 130.519531 Z M 197.371094 116.257812 " fill-opacity="1" fill-rule="nonzero"/></g><g clip-path="url(#2510f43e00)"><path fill="#c2cc00" d="M 180.445312 68.382812 C 180.5625 68.265625 180.65625 68.125 180.722656 67.96875 C 180.785156 67.816406 180.820312 67.652344 180.820312 67.484375 C 180.820312 67.3125 180.785156 67.152344 180.722656 66.996094 C 180.65625 66.839844 180.5625 66.703125 180.445312 66.582031 L 115.597656 1.738281 C 115.351562 1.488281 115.050781 1.367188 114.699219 1.363281 C 114.347656 1.367188 114.046875 1.492188 113.800781 1.738281 L 97.738281 17.808594 C 97.617188 17.929688 97.523438 18.066406 97.457031 18.222656 C 97.394531 18.378906 97.359375 18.539062 97.359375 18.710938 C 97.359375 18.878906 97.394531 19.042969 97.457031 19.199219 C 97.523438 19.351562 97.617188 19.492188 97.738281 19.609375 L 145.609375 67.484375 L 97.738281 115.355469 C 97.484375 115.601562 97.359375 115.902344 97.363281 116.257812 C 97.363281 116.609375 97.484375 116.910156 97.738281 117.15625 L 113.800781 133.21875 C 114.046875 133.464844 114.347656 133.589844 114.699219 133.59375 C 115.050781 133.59375 115.351562 133.46875 115.597656 133.21875 Z M 100.4375 116.257812 L 148.308594 68.382812 C 148.554688 68.132812 148.679688 67.832031 148.683594 67.484375 C 148.683594 67.132812 148.558594 66.832031 148.308594 66.582031 L 100.4375 18.710938 L 114.699219 4.4375 L 177.734375 67.484375 L 114.691406 130.519531 Z M 100.4375 116.257812 " fill-opacity="1" fill-rule="nonzero"/></g><g clip-path="url(#258e8c45c1)"><path fill="#c2cc00" d="M 83.5 68.382812 C 83.621094 68.265625 83.710938 68.125 83.777344 67.96875 C 83.84375 67.816406 83.875 67.652344 83.875 67.484375 C 83.875 67.3125 83.84375 67.152344 83.777344 66.996094 C 83.710938 66.839844 83.621094 66.703125 83.5 66.582031 L 18.664062 1.738281 C 18.414062 1.492188 18.113281 1.367188 17.765625 1.363281 C 17.414062 1.367188 17.113281 1.488281 16.863281 1.738281 L 0.792969 17.808594 C 0.675781 17.929688 0.582031 18.066406 0.519531 18.222656 C 0.457031 18.378906 0.425781 18.542969 0.425781 18.710938 C 0.425781 18.878906 0.457031 19.039062 0.519531 19.195312 C 0.582031 19.351562 0.675781 19.488281 0.792969 19.609375 L 48.691406 67.484375 L 0.816406 115.355469 C 0.570312 115.605469 0.445312 115.90625 0.445312 116.257812 C 0.449219 116.605469 0.574219 116.90625 0.816406 117.15625 L 16.890625 133.21875 C 17.136719 133.46875 17.4375 133.59375 17.789062 133.59375 C 18.140625 133.589844 18.441406 133.464844 18.6875 133.21875 Z M 3.492188 116.257812 L 51.367188 68.382812 C 51.617188 68.136719 51.742188 67.835938 51.738281 67.484375 C 51.746094 67.128906 51.621094 66.828125 51.367188 66.582031 L 3.492188 18.710938 L 17.765625 4.4375 L 80.800781 67.484375 L 17.765625 130.519531 Z M 3.492188 116.257812 " fill-opacity="1" fill-rule="nonzero"/></g></g></g></g></svg>