<svg xmlns="http://www.w3.org/2000/svg" xmlns:xlink="http://www.w3.org/1999/xlink" width="500" zoomAndPan="magnify" viewBox="0 0 375 374.999991" height="500" preserveAspectRatio="xMidYMid meet" version="1.0"><defs><filter x="0%" y="0%" width="100%" height="100%" id="a5e1a373c7"><feColorMatrix values="0 0 0 0 1 0 0 0 0 1 0 0 0 0 1 0 0 0 1 0" color-interpolation-filters="sRGB"/></filter><mask id="c8e97a1a70"><g filter="url(#a5e1a373c7)"><rect x="-37.5" width="450" fill="#000000" y="-37.499999" height="449.999989" fill-opacity="0.66"/></g></mask><clipPath id="318903f6e1"><path d="M 34 86 L 209 86 L 209 264 L 34 264 Z M 34 86 " clip-rule="nonzero"/></clipPath><clipPath id="2d9cede13c"><path d="M -37.339844 167.230469 L 260.988281 -23.335938 L 393.820312 184.609375 L 95.492188 375.175781 Z M -37.339844 167.230469 " clip-rule="nonzero"/></clipPath><clipPath id="9573665afd"><path d="M -37.339844 167.230469 L 260.988281 -23.335938 L 393.820312 184.609375 L 95.492188 375.175781 Z M -37.339844 167.230469 " clip-rule="nonzero"/></clipPath><clipPath id="fdc95a45e4"><path d="M 216 40 L 305 40 L 305 216 L 216 216 Z M 216 40 " clip-rule="nonzero"/></clipPath><clipPath id="8e8d6a6698"><path d="M -37.339844 167.230469 L 260.988281 -23.335938 L 393.820312 184.609375 L 95.492188 375.175781 Z M -37.339844 167.230469 " clip-rule="nonzero"/></clipPath><clipPath id="711dd8cc95"><path d="M -37.339844 167.230469 L 260.988281 -23.335938 L 393.820312 184.609375 L 95.492188 375.175781 Z M -37.339844 167.230469 " clip-rule="nonzero"/></clipPath><clipPath id="50eb32ba6e"><path d="M 70 276 L 168 276 L 168 340 L 70 340 Z M 70 276 " clip-rule="nonzero"/></clipPath><clipPath id="16d9dbdf92"><path d="M -37.339844 167.230469 L 260.988281 -23.335938 L 393.820312 184.609375 L 95.492188 375.175781 Z M -37.339844 167.230469 " clip-rule="nonzero"/></clipPath><clipPath id="e18f18c21c"><path d="M -37.339844 167.230469 L 260.988281 -23.335938 L 393.820312 184.609375 L 95.492188 375.175781 Z M -37.339844 167.230469 " clip-rule="nonzero"/></clipPath><clipPath id="9dc7fdd7cb"><rect x="0" width="375" y="0" height="374"/></clipPath></defs><g mask="url(#c8e97a1a70)"><g transform="matrix(1, 0, 0, 1, 0, 0)"><g clip-path="url(#9dc7fdd7cb)"><g clip-path="url(#318903f6e1)"><g clip-path="url(#2d9cede13c)"><g clip-path="url(#9573665afd)"><path fill="#ffde59" d="M 180.195312 200.464844 C 188.453125 212.25 196.710938 224.074219 205 235.816406 C 210.6875 243.804688 209.804688 249.929688 201.652344 257.886719 C 194.59375 264.800781 189.109375 265.195312 181.441406 259.46875 C 135.207031 225.074219 88.992188 190.667969 42.742188 156.3125 C 32.988281 149.046875 32.429688 141.53125 41.117188 133.230469 C 55.632812 119.390625 70.09375 105.558594 84.664062 91.746094 C 92.257812 84.523438 100.902344 85.5 106.90625 94.164062 C 131.382812 129.550781 155.828125 164.980469 180.277344 200.414062 C 180.257812 200.425781 180.234375 200.441406 180.195312 200.464844 Z M 180.195312 200.464844 " fill-opacity="1" fill-rule="evenodd"/></g></g></g><g clip-path="url(#fdc95a45e4)"><g clip-path="url(#8e8d6a6698)"><g clip-path="url(#711dd8cc95)"><path fill="#ffde59" d="M 259.449219 208.789062 C 258.214844 207.175781 257.796875 205.015625 257.363281 202.863281 C 245.570312 147.199219 229.199219 115.152344 217.457031 59.464844 C 215.289062 49.339844 220.660156 41.929688 230.96875 41.578125 C 250.648438 40.949219 270.3125 40.539062 290.042969 40.257812 C 299.710938 40.136719 305.253906 46.523438 303.929688 56.175781 C 296.195312 112.578125 293.050781 145.324219 285.242188 201.648438 C 285.019531 203.316406 284.609375 204.921875 284.097656 206.449219 C 282.113281 211.964844 278.230469 215.234375 272.382812 215.695312 C 266.839844 216.097656 262.429688 213.910156 259.449219 208.789062 Z M 259.449219 208.789062 " fill-opacity="1" fill-rule="evenodd"/></g></g></g><g clip-path="url(#50eb32ba6e)"><g clip-path="url(#16d9dbdf92)"><g clip-path="url(#e18f18c21c)"><path fill="#ffde59" d="M 164.605469 305.703125 C 171.058594 315.566406 164.511719 330.84375 153.121094 332.121094 C 130.355469 334.695312 107.523438 336.984375 84.703125 339.0625 C 74.992188 339.996094 69.117188 333.414062 70.675781 323.753906 C 72.496094 312.261719 74.492188 300.769531 76.640625 289.324219 C 78.722656 278.660156 85.703125 274.464844 95.929688 278.058594 C 116.691406 285.40625 137.300781 293.109375 157.992188 300.703125 C 160.785156 301.730469 163.226562 303.210938 164.605469 305.703125 Z M 164.605469 305.703125 " fill-opacity="1" fill-rule="evenodd"/></g></g></g></g></g></g></svg>