<svg xmlns="http://www.w3.org/2000/svg" xmlns:xlink="http://www.w3.org/1999/xlink" width="500" zoomAndPan="magnify" viewBox="0 0 375 374.999991" height="500" preserveAspectRatio="xMidYMid meet" version="1.0"><defs><filter x="0%" y="0%" width="100%" height="100%" id="dddcb190f0"><feColorMatrix values="0 0 0 0 1 0 0 0 0 1 0 0 0 0 1 0 0 0 1 0" color-interpolation-filters="sRGB"/></filter><mask id="738f2a30f8"><g filter="url(#dddcb190f0)"><rect x="-37.5" width="450" fill="#000000" y="-37.499999" height="449.999989" fill-opacity="0.59"/></g></mask><clipPath id="9685ae4eea"><path d="M 153 312 L 226.066406 312 L 226.066406 375 L 153 375 Z M 153 312 " clip-rule="nonzero"/></clipPath><clipPath id="bf3255cdf2"><path d="M 149.566406 194 L 166 194 L 166 249 L 149.566406 249 Z M 149.566406 194 " clip-rule="nonzero"/></clipPath><clipPath id="3d719e3839"><rect x="0" width="227" y="0" height="375"/></clipPath></defs><path fill="#fdeaac" d="M 130.21875 273.710938 C 129.640625 268.21875 127.464844 261.25 124.507812 254.1875 C 129.539062 250.222656 133.765625 246.015625 136.105469 241.335938 C 131.511719 239.160156 124.445312 238.261719 116.671875 238.367188 C 113.804688 233.410156 110.839844 229.027344 108.148438 225.882812 C 104.21875 227.980469 101.410156 233.441406 99.289062 240.09375 C 88.910156 241.980469 79.492188 245.289062 75.039062 249.429688 C 79.75 252.199219 86.859375 256.742188 94.601562 261.175781 C 93.625 266.871094 92.824219 271.945312 91.960938 275.179688 L 91.714844 278.613281 C 95.238281 274.621094 100.285156 270.878906 105.761719 267.15625 C 115.175781 271.789062 124.308594 275.023438 130.21875 273.707031 Z M 108.917969 234.542969 C 107.777344 234.542969 106.851562 233.621094 106.851562 232.480469 C 106.851562 231.335938 107.777344 230.414062 108.917969 230.414062 C 110.058594 230.414062 110.984375 231.339844 110.984375 232.480469 C 110.984375 233.617188 110.058594 234.542969 108.917969 234.542969 Z M 108.917969 234.542969 " fill-opacity="1" fill-rule="nonzero"/><path fill="#bc956e" d="M 110.632812 117.328125 C 110.785156 136.082031 111.695312 154.734375 112.449219 173.46875 C 113.21875 192.632812 113.140625 212.109375 108.261719 230.78125 C 107.960938 231.929688 109.734375 232.414062 110.03125 231.269531 C 114.679688 213.488281 114.980469 195.035156 114.40625 176.769531 C 113.800781 157.539062 112.59375 138.390625 112.484375 119.140625 C 112.253906 79.425781 110.535156 39.65625 113.261719 0 L 111.425781 0 C 108.734375 39.046875 110.324219 78.222656 110.632812 117.328125 Z M 110.632812 117.328125 " fill-opacity="1" fill-rule="nonzero"/><path fill="#fdeaac" d="M 214.84375 209.371094 C 212.691406 202.621094 209.84375 197.082031 205.855469 194.953125 C 203.125 198.144531 200.113281 202.585938 197.203125 207.621094 C 189.320312 207.511719 182.152344 208.421875 177.488281 210.632812 C 179.859375 215.378906 184.148438 219.644531 189.25 223.667969 C 186.25 230.832031 184.046875 237.90625 183.460938 243.476562 C 189.457031 244.8125 198.722656 241.53125 208.277344 236.832031 C 213.832031 240.609375 218.953125 244.40625 222.527344 248.457031 L 222.277344 244.972656 C 221.402344 241.691406 220.589844 236.542969 219.601562 230.761719 C 227.457031 226.265625 234.667969 221.65625 239.449219 218.84375 C 234.929688 214.644531 225.375 211.289062 214.84375 209.371094 Z M 206.851562 200.09375 C 206.261719 200.09375 205.785156 199.617188 205.785156 199.03125 C 205.785156 198.441406 206.261719 197.964844 206.851562 197.964844 C 207.4375 197.964844 207.914062 198.441406 207.914062 199.03125 C 207.914062 199.617188 207.4375 200.09375 206.851562 200.09375 Z M 206.851562 200.09375 " fill-opacity="1" fill-rule="nonzero"/><path fill="#bc956e" d="M 211.402344 95.25 C 211.34375 128.347656 206.914062 161.210938 206.476562 194.285156 C 206.460938 195.605469 206.457031 196.925781 206.453125 198.25 C 206.453125 198.894531 207.457031 198.894531 207.457031 198.25 C 207.507812 165.164062 211.992188 132.269531 212.378906 99.179688 C 212.753906 66.882812 209.734375 34.667969 209.472656 2.378906 C 209.46875 1.585938 209.46875 0.792969 209.464844 0 L 208.46875 0 C 208.585938 31.773438 211.457031 63.46875 211.402344 95.25 Z M 211.402344 95.25 " fill-opacity="1" fill-rule="nonzero"/><g mask="url(#738f2a30f8)"><g transform="matrix(1, 0, 0, 1, 62, 0)"><g clip-path="url(#3d719e3839)"><g clip-path="url(#9685ae4eea)"><path fill="#fdeaac" d="M 226.078125 330.851562 C 220.636719 328.273438 212.265625 327.207031 203.058594 327.335938 C 199.667969 321.460938 196.15625 316.273438 192.964844 312.550781 C 188.3125 315.03125 184.988281 321.5 182.472656 329.378906 C 170.183594 331.617188 159.03125 335.535156 153.753906 340.433594 C 159.332031 343.714844 167.753906 349.097656 176.921875 354.347656 C 175.765625 361.09375 174.816406 367.101562 173.792969 370.933594 L 173.503906 375 C 177.675781 370.269531 183.652344 365.839844 190.140625 361.429688 C 201.289062 366.917969 212.109375 370.746094 219.105469 369.191406 C 218.421875 362.6875 215.84375 354.433594 212.34375 346.070312 C 218.300781 341.375 223.308594 336.390625 226.078125 330.847656 Z M 194.039062 324.515625 C 192.539062 324.515625 191.320312 323.300781 191.320312 321.800781 C 191.320312 320.296875 192.539062 319.082031 194.039062 319.082031 C 195.542969 319.082031 196.757812 320.296875 196.757812 321.800781 C 196.757812 323.300781 195.542969 324.515625 194.039062 324.515625 Z M 194.039062 324.515625 " fill-opacity="1" fill-rule="nonzero"/></g><path fill="#bc956e" d="M 198.382812 163.242188 C 197.046875 189.511719 196.636719 215.777344 194.621094 242.007812 C 192.628906 267.9375 190.273438 294 192.320312 320.003906 C 192.429688 321.390625 194.605469 321.402344 194.496094 320.003906 C 192.503906 294.683594 194.679688 269.296875 196.640625 244.042969 C 198.726562 217.132812 199.214844 190.195312 200.558594 163.242188 C 203.269531 108.792969 208.109375 54.472656 210.421875 0 L 208.25 0 C 205.933594 54.46875 201.148438 108.796875 198.382812 163.242188 Z M 198.382812 163.242188 " fill-opacity="1" fill-rule="nonzero"/><g clip-path="url(#bf3255cdf2)"><path fill="#fdeaac" d="M 140.957031 209.371094 C 138.804688 202.621094 135.957031 197.082031 131.96875 194.953125 C 129.238281 198.144531 126.226562 202.585938 123.316406 207.621094 C 115.433594 207.511719 108.265625 208.421875 103.601562 210.632812 C 105.972656 215.378906 110.261719 219.644531 115.363281 223.667969 C 112.363281 230.832031 110.160156 237.90625 109.574219 243.476562 C 115.570312 244.8125 124.835938 241.53125 134.390625 236.832031 C 139.945312 240.609375 145.066406 244.40625 148.640625 248.457031 L 148.390625 244.972656 C 147.515625 241.691406 146.703125 236.542969 145.714844 230.761719 C 153.570312 226.265625 160.78125 221.65625 165.5625 218.84375 C 161.039062 214.644531 151.488281 211.289062 140.957031 209.371094 Z M 132.964844 200.09375 C 132.375 200.09375 131.898438 199.617188 131.898438 199.03125 C 131.898438 198.441406 132.375 197.964844 132.964844 197.964844 C 133.550781 197.964844 134.027344 198.441406 134.027344 199.03125 C 134.027344 199.617188 133.550781 200.09375 132.964844 200.09375 Z M 132.964844 200.09375 " fill-opacity="1" fill-rule="nonzero"/></g></g></g></g></svg>