<svg xmlns="http://www.w3.org/2000/svg" xmlns:xlink="http://www.w3.org/1999/xlink" width="1000" zoomAndPan="magnify" viewBox="0 0 750 449.999984" height="600" preserveAspectRatio="xMidYMid meet" version="1.0"><path fill="#e3ecff" d="M 400.761719 391.648438 L 307.515625 414.695312 C 200.824219 450.246094 84.84375 422.34375 -5.59375 363.734375 L -5.59375 295.671875 C -1.160156 294.007812 3.382812 292.371094 8.167969 291.148438 C 166.363281 250.710938 234.75 327.054688 314.199219 364.152344 C 340.523438 376.445312 368.335938 393.648438 400.761719 391.648438 Z M 400.761719 391.648438 " fill-opacity="1" fill-rule="evenodd"/><path fill="#e3ecff" d="M 330.355469 386.980469 L 423.328125 419.25 C 535.808594 456.730469 658.617188 423.691406 750.929688 358.492188 L 750.929688 305.339844 C 741.777344 302.695312 732.761719 298.28125 722.679688 295.703125 C 512.066406 241.867188 460.640625 395.027344 330.355469 386.980469 Z M 330.355469 386.980469 " fill-opacity="1" fill-rule="evenodd"/><path fill="#88affc" d="M 681.144531 397.101562 C 763.230469 371.492188 788.363281 377.03125 683.84375 374.191406 C 682.660156 374.160156 681.476562 374.125 680.300781 374.085938 C 524.75 368.925781 406.617188 280.007812 254.585938 294.941406 C 197.167969 300.578125 113.222656 313.472656 113.222656 327.488281 C 236.464844 368.34375 413.789062 475.117188 628.40625 423.527344 C 642.972656 420.027344 665.742188 401.90625 681.144531 397.101562 Z M 681.144531 397.101562 " fill-opacity="0.58" fill-rule="evenodd"/><path fill="#6699ff" d="M 750.929688 348.378906 C 716.476562 373.464844 693.457031 386.542969 645.125 401.621094 C 477.480469 453.917969 139.328125 273.859375 -5.59375 329.851562 L -5.59375 452.089844 L 750.929688 452.089844 Z M 750.929688 348.378906 " fill-opacity="1" fill-rule="evenodd"/></svg>